<mxfile host="app.diagrams.net" modified="2023-01-18T07:09:15.060Z" agent="5.0 (Macintosh; Intel Mac OS X 10_15_7) AppleWebKit/537.36 (KHTML, like Gecko) Chrome/108.0.0.0 Safari/537.36" etag="x8v6LYTVTJ9_CHm5C_1p" version="20.8.5" type="github" pages="5">
  <diagram id="WQkGqLazpZ9z9GeQH751" name="Page-1">
    <mxGraphModel dx="954" dy="591" grid="1" gridSize="10" guides="1" tooltips="1" connect="1" arrows="1" fold="1" page="1" pageScale="1" pageWidth="1600" pageHeight="900" math="0" shadow="0">
      <root>
        <mxCell id="0" />
        <mxCell id="1" parent="0" />
        <mxCell id="fDiG277s8uqBFP14U49b-3" value="users" style="sketch=0;outlineConnect=0;fontColor=#ffffff;strokeColor=#001DBC;fillColor=#0050ef;dashed=0;verticalLabelPosition=bottom;verticalAlign=top;align=center;html=1;fontSize=12;fontStyle=0;aspect=fixed;shape=mxgraph.aws4.illustration_users;pointerEvents=1" parent="1" vertex="1">
          <mxGeometry x="20" y="200" width="60" height="60" as="geometry" />
        </mxCell>
        <mxCell id="fDiG277s8uqBFP14U49b-4" value="" style="edgeStyle=orthogonalEdgeStyle;html=1;endArrow=block;elbow=vertical;startArrow=none;endFill=1;strokeColor=#545B64;rounded=0;entryX=-0.06;entryY=0.821;entryDx=0;entryDy=0;entryPerimeter=0;" parent="1" source="fDiG277s8uqBFP14U49b-3" target="fDiG277s8uqBFP14U49b-5" edge="1">
          <mxGeometry width="100" relative="1" as="geometry">
            <mxPoint x="110" y="245" as="sourcePoint" />
            <mxPoint x="210" y="245" as="targetPoint" />
          </mxGeometry>
        </mxCell>
        <mxCell id="fDiG277s8uqBFP14U49b-5" value="devices" style="sketch=0;outlineConnect=0;strokeColor=#2D7600;fillColor=#60a917;dashed=0;verticalLabelPosition=bottom;verticalAlign=top;align=center;html=1;fontSize=12;fontStyle=0;aspect=fixed;shape=mxgraph.aws4.illustration_devices;pointerEvents=1;fontColor=#ffffff;" parent="1" vertex="1">
          <mxGeometry x="160" y="199" width="83.56" height="61" as="geometry" />
        </mxCell>
        <mxCell id="fDiG277s8uqBFP14U49b-11" value="" style="edgeStyle=orthogonalEdgeStyle;html=1;endArrow=block;elbow=vertical;startArrow=none;endFill=1;strokeColor=#545B64;rounded=0;" parent="1" edge="1">
          <mxGeometry width="100" relative="1" as="geometry">
            <mxPoint x="243.56" y="240" as="sourcePoint" />
            <mxPoint x="300" y="240" as="targetPoint" />
          </mxGeometry>
        </mxCell>
        <mxCell id="fDiG277s8uqBFP14U49b-25" value="" style="group;fillColor=#d5e8d4;strokeColor=#82b366;" parent="1" vertex="1" connectable="0">
          <mxGeometry x="300" y="199" width="80" height="111" as="geometry" />
        </mxCell>
        <mxCell id="fDiG277s8uqBFP14U49b-21" value="" style="sketch=0;points=[[0,0,0],[0.25,0,0],[0.5,0,0],[0.75,0,0],[1,0,0],[0,1,0],[0.25,1,0],[0.5,1,0],[0.75,1,0],[1,1,0],[0,0.25,0],[0,0.5,0],[0,0.75,0],[1,0.25,0],[1,0.5,0],[1,0.75,0]];outlineConnect=0;gradientDirection=north;dashed=0;verticalLabelPosition=bottom;verticalAlign=top;align=center;html=1;fontSize=12;fontStyle=0;aspect=fixed;shape=mxgraph.aws4.resourceIcon;resIcon=mxgraph.aws4.route_53;shadow=0;fillColor=#d5e8d4;strokeColor=#82b366;" parent="fDiG277s8uqBFP14U49b-25" vertex="1">
          <mxGeometry width="78" height="78" as="geometry" />
        </mxCell>
        <mxCell id="fDiG277s8uqBFP14U49b-24" value="Route 53&lt;br&gt;(optional)" style="text;html=1;strokeColor=none;fillColor=none;align=center;verticalAlign=middle;whiteSpace=wrap;rounded=0;shadow=0;" parent="fDiG277s8uqBFP14U49b-25" vertex="1">
          <mxGeometry x="7" y="81" width="71" height="30" as="geometry" />
        </mxCell>
        <mxCell id="fDiG277s8uqBFP14U49b-29" value="" style="endArrow=classic;html=1;rounded=0;exitX=1;exitY=0.5;exitDx=0;exitDy=0;exitPerimeter=0;entryX=-0.013;entryY=0.359;entryDx=0;entryDy=0;entryPerimeter=0;" parent="1" source="fDiG277s8uqBFP14U49b-21" target="fDiG277s8uqBFP14U49b-75" edge="1">
          <mxGeometry width="50" height="50" relative="1" as="geometry">
            <mxPoint x="450" y="290" as="sourcePoint" />
            <mxPoint x="500" y="240" as="targetPoint" />
          </mxGeometry>
        </mxCell>
        <mxCell id="fDiG277s8uqBFP14U49b-30" value="" style="endArrow=classic;html=1;rounded=0;" parent="1" target="fDiG277s8uqBFP14U49b-16" edge="1">
          <mxGeometry width="50" height="50" relative="1" as="geometry">
            <mxPoint x="380" y="270" as="sourcePoint" />
            <mxPoint x="500" y="240" as="targetPoint" />
          </mxGeometry>
        </mxCell>
        <mxCell id="fDiG277s8uqBFP14U49b-31" value="" style="endArrow=classic;html=1;rounded=0;" parent="1" edge="1">
          <mxGeometry width="50" height="50" relative="1" as="geometry">
            <mxPoint x="250" y="500" as="sourcePoint" />
            <mxPoint x="340" y="430" as="targetPoint" />
          </mxGeometry>
        </mxCell>
        <mxCell id="fDiG277s8uqBFP14U49b-43" value="&lt;span style=&quot;color: rgb(0, 0, 0); font-family: Helvetica; font-size: 12px; font-style: normal; font-variant-ligatures: normal; font-variant-caps: normal; font-weight: 400; letter-spacing: normal; orphans: 2; text-indent: 0px; text-transform: none; widows: 2; word-spacing: 0px; -webkit-text-stroke-width: 0px; background-color: rgb(251, 251, 251); text-decoration-thickness: initial; text-decoration-style: initial; text-decoration-color: initial; float: none; display: inline !important;&quot;&gt;Secure Headers Lambda Functions&amp;nbsp;&lt;/span&gt;" style="text;whiteSpace=wrap;html=1;align=center;" parent="1" vertex="1">
          <mxGeometry x="60" y="480" width="110" height="40" as="geometry" />
        </mxCell>
        <mxCell id="fDiG277s8uqBFP14U49b-58" style="edgeStyle=orthogonalEdgeStyle;rounded=0;orthogonalLoop=1;jettySize=auto;html=1;entryX=0;entryY=0.5;entryDx=0;entryDy=0;entryPerimeter=0;" parent="1" source="fDiG277s8uqBFP14U49b-57" target="fDiG277s8uqBFP14U49b-9" edge="1">
          <mxGeometry relative="1" as="geometry" />
        </mxCell>
        <mxCell id="fDiG277s8uqBFP14U49b-15" value="" style="group" parent="1" vertex="1" connectable="0">
          <mxGeometry x="470" y="300" width="68" height="94.15" as="geometry" />
        </mxCell>
        <mxCell id="fDiG277s8uqBFP14U49b-16" value="" style="sketch=0;points=[[0,0,0],[0.25,0,0],[0.5,0,0],[0.75,0,0],[1,0,0],[0,1,0],[0.25,1,0],[0.5,1,0],[0.75,1,0],[1,1,0],[0,0.25,0],[0,0.5,0],[0,0.75,0],[1,0.25,0],[1,0.5,0],[1,0.75,0]];outlineConnect=0;fontColor=#232F3E;gradientColor=#945DF2;gradientDirection=north;fillColor=#5A30B5;strokeColor=#ffffff;dashed=0;verticalLabelPosition=bottom;verticalAlign=top;align=center;html=1;fontSize=12;fontStyle=0;aspect=fixed;shape=mxgraph.aws4.resourceIcon;resIcon=mxgraph.aws4.cloudfront;shadow=0;" parent="fDiG277s8uqBFP14U49b-15" vertex="1">
          <mxGeometry width="67.99722222222223" height="67.99722222222223" as="geometry" />
        </mxCell>
        <mxCell id="fDiG277s8uqBFP14U49b-17" value="Cloudfront" style="text;html=1;strokeColor=none;fillColor=none;align=center;verticalAlign=middle;whiteSpace=wrap;rounded=0;shadow=0;" parent="fDiG277s8uqBFP14U49b-15" vertex="1">
          <mxGeometry x="7.846153846153847" y="67.99722222222223" width="52.30769230769231" height="26.15277777777778" as="geometry" />
        </mxCell>
        <mxCell id="fDiG277s8uqBFP14U49b-37" value="" style="edgeStyle=orthogonalEdgeStyle;rounded=0;orthogonalLoop=1;jettySize=auto;html=1;entryX=0;entryY=0.5;entryDx=0;entryDy=0;entryPerimeter=0;" parent="1" source="fDiG277s8uqBFP14U49b-16" target="fDiG277s8uqBFP14U49b-48" edge="1">
          <mxGeometry relative="1" as="geometry">
            <mxPoint x="600" y="350" as="targetPoint" />
          </mxGeometry>
        </mxCell>
        <mxCell id="fDiG277s8uqBFP14U49b-46" value="" style="group" parent="1" vertex="1" connectable="0">
          <mxGeometry x="585" y="170" width="102" height="103.85" as="geometry" />
        </mxCell>
        <mxCell id="fDiG277s8uqBFP14U49b-62" value="" style="group" parent="fDiG277s8uqBFP14U49b-46" vertex="1" connectable="0">
          <mxGeometry width="102" height="103.85" as="geometry" />
        </mxCell>
        <mxCell id="fDiG277s8uqBFP14U49b-41" value="&lt;span style=&quot;color: rgb(0, 0, 0); font-family: Helvetica; font-size: 12px; font-style: normal; font-variant-ligatures: normal; font-variant-caps: normal; font-weight: 400; letter-spacing: normal; orphans: 2; text-indent: 0px; text-transform: none; widows: 2; word-spacing: 0px; -webkit-text-stroke-width: 0px; background-color: rgb(251, 251, 251); text-decoration-thickness: initial; text-decoration-style: initial; text-decoration-color: initial; float: none; display: inline !important;&quot;&gt;Secure Headers Lambda Functions&amp;nbsp;&lt;/span&gt;" style="text;whiteSpace=wrap;html=1;align=center;" parent="fDiG277s8uqBFP14U49b-62" vertex="1">
          <mxGeometry y="66.76071428571429" width="102" height="37.089285714285715" as="geometry" />
        </mxCell>
        <mxCell id="fDiG277s8uqBFP14U49b-45" value="" style="outlineConnect=0;dashed=0;verticalLabelPosition=bottom;verticalAlign=top;align=center;html=1;shape=mxgraph.aws3.lambda_function;fillColor=#F58534;gradientColor=none;shadow=0;" parent="fDiG277s8uqBFP14U49b-62" vertex="1">
          <mxGeometry x="19.009090909090908" width="63.98181818181818" height="66.76071428571429" as="geometry" />
        </mxCell>
        <mxCell id="fDiG277s8uqBFP14U49b-51" value="" style="group" parent="1" vertex="1" connectable="0">
          <mxGeometry x="650" y="420" width="101.85" height="100" as="geometry" />
        </mxCell>
        <mxCell id="fDiG277s8uqBFP14U49b-48" value="" style="sketch=0;points=[[0,0,0],[0.25,0,0],[0.5,0,0],[0.75,0,0],[1,0,0],[0,1,0],[0.25,1,0],[0.5,1,0],[0.75,1,0],[1,1,0],[0,0.25,0],[0,0.5,0],[0,0.75,0],[1,0.25,0],[1,0.5,0],[1,0.75,0]];outlineConnect=0;fontColor=#232F3E;gradientColor=#60A337;gradientDirection=north;fillColor=#277116;strokeColor=#ffffff;dashed=0;verticalLabelPosition=bottom;verticalAlign=top;align=center;html=1;fontSize=12;fontStyle=0;aspect=fixed;shape=mxgraph.aws4.resourceIcon;resIcon=mxgraph.aws4.s3;shadow=0;" parent="fDiG277s8uqBFP14U49b-51" vertex="1">
          <mxGeometry x="15.740454545454545" width="72.22090909090909" height="72.22090909090909" as="geometry" />
        </mxCell>
        <mxCell id="fDiG277s8uqBFP14U49b-50" value="&lt;span style=&quot;color: rgb(0, 0, 0); font-family: Helvetica; font-size: 12px; font-style: normal; font-variant-ligatures: normal; font-variant-caps: normal; font-weight: 400; letter-spacing: normal; orphans: 2; text-indent: 0px; text-transform: none; widows: 2; word-spacing: 0px; -webkit-text-stroke-width: 0px; background-color: rgb(251, 251, 251); text-decoration-thickness: initial; text-decoration-style: initial; text-decoration-color: initial; float: none; display: inline !important;&quot;&gt;S3&lt;/span&gt;" style="text;whiteSpace=wrap;html=1;align=center;" parent="fDiG277s8uqBFP14U49b-51" vertex="1">
          <mxGeometry y="72.22222222222223" width="101.85" height="27.77777777777778" as="geometry" />
        </mxCell>
        <mxCell id="fDiG277s8uqBFP14U49b-54" value="" style="group" parent="1" vertex="1" connectable="0">
          <mxGeometry x="830" y="270" width="99.81" height="98" as="geometry" />
        </mxCell>
        <mxCell id="fDiG277s8uqBFP14U49b-55" value="" style="sketch=0;points=[[0,0,0],[0.25,0,0],[0.5,0,0],[0.75,0,0],[1,0,0],[0,1,0],[0.25,1,0],[0.5,1,0],[0.75,1,0],[1,1,0],[0,0.25,0],[0,0.5,0],[0,0.75,0],[1,0.25,0],[1,0.5,0],[1,0.75,0]];outlineConnect=0;fontColor=#232F3E;gradientColor=#60A337;gradientDirection=north;fillColor=#277116;strokeColor=#ffffff;dashed=0;verticalLabelPosition=bottom;verticalAlign=top;align=center;html=1;fontSize=12;fontStyle=0;aspect=fixed;shape=mxgraph.aws4.resourceIcon;resIcon=mxgraph.aws4.s3;shadow=0;" parent="fDiG277s8uqBFP14U49b-54" vertex="1">
          <mxGeometry x="15.425181818181818" width="70.77436363636363" height="70.77436363636363" as="geometry" />
        </mxCell>
        <mxCell id="fDiG277s8uqBFP14U49b-56" value="&lt;span style=&quot;color: rgb(0, 0, 0); font-family: Helvetica; font-size: 12px; font-style: normal; font-variant-ligatures: normal; font-variant-caps: normal; font-weight: 400; letter-spacing: normal; orphans: 2; text-indent: 0px; text-transform: none; widows: 2; word-spacing: 0px; -webkit-text-stroke-width: 0px; background-color: rgb(251, 251, 251); text-decoration-thickness: initial; text-decoration-style: initial; text-decoration-color: initial; float: none; display: inline !important;&quot;&gt;S3&lt;/span&gt;" style="text;whiteSpace=wrap;html=1;align=center;" parent="fDiG277s8uqBFP14U49b-54" vertex="1">
          <mxGeometry y="70.77777777777779" width="99.81" height="27.22222222222222" as="geometry" />
        </mxCell>
        <mxCell id="fDiG277s8uqBFP14U49b-14" value="" style="group" parent="1" vertex="1" connectable="0">
          <mxGeometry x="640" y="50" width="70.78" height="98" as="geometry" />
        </mxCell>
        <mxCell id="fDiG277s8uqBFP14U49b-9" value="" style="sketch=0;points=[[0,0,0],[0.25,0,0],[0.5,0,0],[0.75,0,0],[1,0,0],[0,1,0],[0.25,1,0],[0.5,1,0],[0.75,1,0],[1,1,0],[0,0.25,0],[0,0.5,0],[0,0.75,0],[1,0.25,0],[1,0.5,0],[1,0.75,0]];outlineConnect=0;fontColor=#232F3E;gradientColor=#945DF2;gradientDirection=north;fillColor=#5A30B5;strokeColor=#ffffff;dashed=0;verticalLabelPosition=bottom;verticalAlign=top;align=center;html=1;fontSize=12;fontStyle=0;aspect=fixed;shape=mxgraph.aws4.resourceIcon;resIcon=mxgraph.aws4.cloudfront;shadow=0;" parent="fDiG277s8uqBFP14U49b-14" vertex="1">
          <mxGeometry width="70.77777777777779" height="70.77777777777779" as="geometry" />
        </mxCell>
        <mxCell id="fDiG277s8uqBFP14U49b-13" value="Cloudfront" style="text;html=1;strokeColor=none;fillColor=none;align=center;verticalAlign=middle;whiteSpace=wrap;rounded=0;shadow=0;" parent="fDiG277s8uqBFP14U49b-14" vertex="1">
          <mxGeometry x="8.166923076923077" y="70.77777777777779" width="54.44615384615385" height="27.22222222222222" as="geometry" />
        </mxCell>
        <mxCell id="fDiG277s8uqBFP14U49b-59" style="edgeStyle=orthogonalEdgeStyle;rounded=0;orthogonalLoop=1;jettySize=auto;html=1;entryX=0.5;entryY=0;entryDx=0;entryDy=0;entryPerimeter=0;" parent="1" source="fDiG277s8uqBFP14U49b-9" target="fDiG277s8uqBFP14U49b-45" edge="1">
          <mxGeometry relative="1" as="geometry" />
        </mxCell>
        <mxCell id="fDiG277s8uqBFP14U49b-61" value="" style="group" parent="1" vertex="1" connectable="0">
          <mxGeometry x="540" y="50" width="101.85" height="100" as="geometry" />
        </mxCell>
        <mxCell id="fDiG277s8uqBFP14U49b-42" value="&lt;span style=&quot;color: rgb(0, 0, 0); font-family: Helvetica; font-size: 12px; font-style: normal; font-variant-ligatures: normal; font-variant-caps: normal; font-weight: 400; letter-spacing: normal; orphans: 2; text-indent: 0px; text-transform: none; widows: 2; word-spacing: 0px; -webkit-text-stroke-width: 0px; background-color: rgb(251, 251, 251); text-decoration-thickness: initial; text-decoration-style: initial; text-decoration-color: initial; float: none; display: inline !important;&quot;&gt;AWS WAF&lt;/span&gt;" style="text;whiteSpace=wrap;html=1;align=center;" parent="fDiG277s8uqBFP14U49b-61" vertex="1">
          <mxGeometry y="72.22222222222223" width="101.85" height="27.77777777777778" as="geometry" />
        </mxCell>
        <mxCell id="fDiG277s8uqBFP14U49b-57" value="" style="sketch=0;points=[[0,0,0],[0.25,0,0],[0.5,0,0],[0.75,0,0],[1,0,0],[0,1,0],[0.25,1,0],[0.5,1,0],[0.75,1,0],[1,1,0],[0,0.25,0],[0,0.5,0],[0,0.75,0],[1,0.25,0],[1,0.5,0],[1,0.75,0]];outlineConnect=0;fontColor=#232F3E;gradientColor=#F54749;gradientDirection=north;fillColor=#C7131F;strokeColor=#ffffff;dashed=0;verticalLabelPosition=bottom;verticalAlign=top;align=center;html=1;fontSize=12;fontStyle=0;aspect=fixed;shape=mxgraph.aws4.resourceIcon;resIcon=mxgraph.aws4.waf;shadow=0;" parent="fDiG277s8uqBFP14U49b-61" vertex="1">
          <mxGeometry x="14.814545454545454" width="72.22090909090909" height="72.22090909090909" as="geometry" />
        </mxCell>
        <mxCell id="fDiG277s8uqBFP14U49b-63" value="ALB" style="points=[[0,0],[0.25,0],[0.5,0],[0.75,0],[1,0],[1,0.25],[1,0.5],[1,0.75],[1,1],[0.75,1],[0.5,1],[0.25,1],[0,1],[0,0.75],[0,0.5],[0,0.25]];outlineConnect=0;gradientColor=none;html=1;whiteSpace=wrap;fontSize=12;fontStyle=0;container=1;pointerEvents=0;collapsible=0;recursiveResize=0;shape=mxgraph.aws4.group;grIcon=mxgraph.aws4.group_aws_cloud_alt;strokeColor=#232F3E;fillColor=none;verticalAlign=top;align=left;spacingLeft=30;fontColor=#232F3E;dashed=1;shadow=0;dashPattern=12 12;" parent="1" vertex="1">
          <mxGeometry x="800" y="20" width="270" height="150" as="geometry" />
        </mxCell>
        <mxCell id="fDiG277s8uqBFP14U49b-65" value="" style="group" parent="fDiG277s8uqBFP14U49b-63" vertex="1" connectable="0">
          <mxGeometry x="4" y="43" width="110" height="102" as="geometry" />
        </mxCell>
        <mxCell id="fDiG277s8uqBFP14U49b-60" value="" style="outlineConnect=0;dashed=0;verticalLabelPosition=bottom;verticalAlign=top;align=center;html=1;shape=mxgraph.aws3.application_load_balancer;fillColor=#F58534;gradientColor=none;shadow=0;" parent="fDiG277s8uqBFP14U49b-65" vertex="1">
          <mxGeometry x="17.200000000000045" width="69" height="72" as="geometry" />
        </mxCell>
        <mxCell id="fDiG277s8uqBFP14U49b-64" value="Load Balancer" style="text;whiteSpace=wrap;html=1;align=center;" parent="fDiG277s8uqBFP14U49b-65" vertex="1">
          <mxGeometry y="72" width="110" height="30" as="geometry" />
        </mxCell>
        <mxCell id="fDiG277s8uqBFP14U49b-68" style="edgeStyle=orthogonalEdgeStyle;rounded=0;orthogonalLoop=1;jettySize=auto;html=1;" parent="fDiG277s8uqBFP14U49b-63" source="fDiG277s8uqBFP14U49b-60" target="fDiG277s8uqBFP14U49b-67" edge="1">
          <mxGeometry relative="1" as="geometry" />
        </mxCell>
        <mxCell id="fDiG277s8uqBFP14U49b-73" value="" style="group" parent="fDiG277s8uqBFP14U49b-63" vertex="1" connectable="0">
          <mxGeometry x="150" y="20" width="110" height="100" as="geometry" />
        </mxCell>
        <mxCell id="fDiG277s8uqBFP14U49b-67" value="" style="sketch=0;points=[[0,0,0],[0.25,0,0],[0.5,0,0],[0.75,0,0],[1,0,0],[0,1,0],[0.25,1,0],[0.5,1,0],[0.75,1,0],[1,1,0],[0,0.25,0],[0,0.5,0],[0,0.75,0],[1,0.25,0],[1,0.5,0],[1,0.75,0]];outlineConnect=0;fontColor=#232F3E;gradientColor=#F78E04;gradientDirection=north;fillColor=#D05C17;strokeColor=#ffffff;dashed=0;verticalLabelPosition=bottom;verticalAlign=top;align=center;html=1;fontSize=12;fontStyle=0;aspect=fixed;shape=mxgraph.aws4.resourceIcon;resIcon=mxgraph.aws4.ec2;shadow=0;dashPattern=12 12;" parent="fDiG277s8uqBFP14U49b-73" vertex="1">
          <mxGeometry x="20" width="70" height="70" as="geometry" />
        </mxCell>
        <mxCell id="fDiG277s8uqBFP14U49b-72" value="EC2 Instance" style="text;whiteSpace=wrap;html=1;align=center;" parent="fDiG277s8uqBFP14U49b-73" vertex="1">
          <mxGeometry y="70" width="110" height="30" as="geometry" />
        </mxCell>
        <mxCell id="fDiG277s8uqBFP14U49b-66" style="edgeStyle=orthogonalEdgeStyle;rounded=0;orthogonalLoop=1;jettySize=auto;html=1;entryX=0;entryY=0.5;entryDx=0;entryDy=0;entryPerimeter=0;" parent="1" source="fDiG277s8uqBFP14U49b-9" target="fDiG277s8uqBFP14U49b-60" edge="1">
          <mxGeometry relative="1" as="geometry" />
        </mxCell>
        <mxCell id="fDiG277s8uqBFP14U49b-69" value="&lt;span style=&quot;color: rgb(0, 0, 0); font-family: Helvetica; font-size: 12px; font-style: normal; font-variant-ligatures: normal; font-variant-caps: normal; font-weight: 400; letter-spacing: normal; orphans: 2; text-indent: 0px; text-transform: none; widows: 2; word-spacing: 0px; -webkit-text-stroke-width: 0px; background-color: rgb(251, 251, 251); text-decoration-thickness: initial; text-decoration-style: initial; text-decoration-color: initial; float: none; display: inline !important;&quot;&gt;meow&lt;/span&gt;" style="text;whiteSpace=wrap;html=1;align=center;" parent="1" vertex="1">
          <mxGeometry x="10" y="660" width="110" height="30" as="geometry" />
        </mxCell>
        <mxCell id="fDiG277s8uqBFP14U49b-70" value="&lt;span style=&quot;color: rgb(0, 0, 0); font-family: Helvetica; font-size: 12px; font-style: normal; font-variant-ligatures: normal; font-variant-caps: normal; font-weight: 400; letter-spacing: normal; orphans: 2; text-indent: 0px; text-transform: none; widows: 2; word-spacing: 0px; -webkit-text-stroke-width: 0px; background-color: rgb(251, 251, 251); text-decoration-thickness: initial; text-decoration-style: initial; text-decoration-color: initial; float: none; display: inline !important;&quot;&gt;Secure Headers Lambda Functions&amp;nbsp;&lt;/span&gt;" style="text;whiteSpace=wrap;html=1;align=center;" parent="1" vertex="1">
          <mxGeometry x="80" y="560" width="110" height="40" as="geometry" />
        </mxCell>
        <mxCell id="fDiG277s8uqBFP14U49b-71" value="EC2 Instance" style="text;whiteSpace=wrap;html=1;align=center;" parent="1" vertex="1">
          <mxGeometry x="300" y="650" width="110" height="30" as="geometry" />
        </mxCell>
        <mxCell id="fDiG277s8uqBFP14U49b-74" style="edgeStyle=orthogonalEdgeStyle;rounded=0;orthogonalLoop=1;jettySize=auto;html=1;entryX=0;entryY=0.5;entryDx=0;entryDy=0;entryPerimeter=0;" parent="1" source="fDiG277s8uqBFP14U49b-45" target="fDiG277s8uqBFP14U49b-55" edge="1">
          <mxGeometry relative="1" as="geometry" />
        </mxCell>
        <mxCell id="fDiG277s8uqBFP14U49b-75" value="" style="swimlane;startSize=0;shadow=0;dashed=1;dashPattern=12 12;" parent="1" vertex="1">
          <mxGeometry x="530" y="10" width="210" height="280" as="geometry">
            <mxRectangle x="530" y="10" width="50" height="40" as="alternateBounds" />
          </mxGeometry>
        </mxCell>
        <mxCell id="fDiG277s8uqBFP14U49b-76" value="Cloudfront" style="text;whiteSpace=wrap;html=1;align=left;" parent="fDiG277s8uqBFP14U49b-75" vertex="1">
          <mxGeometry x="21" width="110" height="20" as="geometry" />
        </mxCell>
      </root>
    </mxGraphModel>
  </diagram>
  <diagram name="Copy of Page-1" id="fmTs4inaL-Cc0uRT4YbL">
    <mxGraphModel dx="1468" dy="909" grid="1" gridSize="10" guides="1" tooltips="1" connect="1" arrows="1" fold="1" page="1" pageScale="1" pageWidth="1600" pageHeight="900" math="0" shadow="0">
      <root>
        <mxCell id="tAO7QPDltxqqwsBGp54e-0" />
        <mxCell id="tAO7QPDltxqqwsBGp54e-1" parent="tAO7QPDltxqqwsBGp54e-0" />
        <mxCell id="tAO7QPDltxqqwsBGp54e-2" value="users" style="sketch=0;outlineConnect=0;fontColor=#ffffff;strokeColor=#001DBC;fillColor=#0050ef;dashed=0;verticalLabelPosition=bottom;verticalAlign=top;align=center;html=1;fontSize=12;fontStyle=0;aspect=fixed;shape=mxgraph.aws4.illustration_users;pointerEvents=1" vertex="1" parent="tAO7QPDltxqqwsBGp54e-1">
          <mxGeometry x="290" y="330" width="60" height="60" as="geometry" />
        </mxCell>
        <mxCell id="tAO7QPDltxqqwsBGp54e-3" value="" style="edgeStyle=orthogonalEdgeStyle;html=1;endArrow=block;elbow=vertical;startArrow=none;endFill=1;strokeColor=#545B64;rounded=0;entryX=-0.06;entryY=0.821;entryDx=0;entryDy=0;entryPerimeter=0;" edge="1" parent="tAO7QPDltxqqwsBGp54e-1" source="tAO7QPDltxqqwsBGp54e-2" target="tAO7QPDltxqqwsBGp54e-4">
          <mxGeometry width="100" relative="1" as="geometry">
            <mxPoint x="380" y="375" as="sourcePoint" />
            <mxPoint x="480" y="375" as="targetPoint" />
          </mxGeometry>
        </mxCell>
        <mxCell id="tAO7QPDltxqqwsBGp54e-4" value="devices" style="sketch=0;outlineConnect=0;strokeColor=#2D7600;fillColor=#60a917;dashed=0;verticalLabelPosition=bottom;verticalAlign=top;align=center;html=1;fontSize=12;fontStyle=0;aspect=fixed;shape=mxgraph.aws4.illustration_devices;pointerEvents=1;fontColor=#ffffff;" vertex="1" parent="tAO7QPDltxqqwsBGp54e-1">
          <mxGeometry x="430" y="329" width="83.56" height="61" as="geometry" />
        </mxCell>
        <mxCell id="tAO7QPDltxqqwsBGp54e-5" value="" style="edgeStyle=orthogonalEdgeStyle;html=1;endArrow=block;elbow=vertical;startArrow=none;endFill=1;strokeColor=#545B64;rounded=0;" edge="1" parent="tAO7QPDltxqqwsBGp54e-1">
          <mxGeometry width="100" relative="1" as="geometry">
            <mxPoint x="513.56" y="370" as="sourcePoint" />
            <mxPoint x="570" y="370" as="targetPoint" />
          </mxGeometry>
        </mxCell>
        <mxCell id="tAO7QPDltxqqwsBGp54e-6" value="" style="group;fillColor=#d5e8d4;strokeColor=#82b366;" vertex="1" connectable="0" parent="tAO7QPDltxqqwsBGp54e-1">
          <mxGeometry x="570" y="329" width="80" height="111" as="geometry" />
        </mxCell>
        <mxCell id="tAO7QPDltxqqwsBGp54e-7" value="" style="sketch=0;points=[[0,0,0],[0.25,0,0],[0.5,0,0],[0.75,0,0],[1,0,0],[0,1,0],[0.25,1,0],[0.5,1,0],[0.75,1,0],[1,1,0],[0,0.25,0],[0,0.5,0],[0,0.75,0],[1,0.25,0],[1,0.5,0],[1,0.75,0]];outlineConnect=0;gradientDirection=north;dashed=0;verticalLabelPosition=bottom;verticalAlign=top;align=center;html=1;fontSize=12;fontStyle=0;aspect=fixed;shape=mxgraph.aws4.resourceIcon;resIcon=mxgraph.aws4.route_53;shadow=0;fillColor=#d5e8d4;strokeColor=#82b366;" vertex="1" parent="tAO7QPDltxqqwsBGp54e-6">
          <mxGeometry width="78" height="78" as="geometry" />
        </mxCell>
        <mxCell id="tAO7QPDltxqqwsBGp54e-8" value="Route 53" style="text;html=1;strokeColor=none;fillColor=none;align=center;verticalAlign=middle;whiteSpace=wrap;rounded=0;shadow=0;" vertex="1" parent="tAO7QPDltxqqwsBGp54e-6">
          <mxGeometry x="7" y="81" width="71" height="30" as="geometry" />
        </mxCell>
        <mxCell id="tAO7QPDltxqqwsBGp54e-9" value="" style="endArrow=classic;html=1;rounded=0;exitX=1;exitY=0.5;exitDx=0;exitDy=0;exitPerimeter=0;entryX=-0.013;entryY=0.359;entryDx=0;entryDy=0;entryPerimeter=0;" edge="1" parent="tAO7QPDltxqqwsBGp54e-1" source="tAO7QPDltxqqwsBGp54e-7" target="tAO7QPDltxqqwsBGp54e-48">
          <mxGeometry width="50" height="50" relative="1" as="geometry">
            <mxPoint x="720" y="420" as="sourcePoint" />
            <mxPoint x="770" y="370" as="targetPoint" />
          </mxGeometry>
        </mxCell>
        <mxCell id="tAO7QPDltxqqwsBGp54e-10" value="" style="endArrow=classic;html=1;rounded=0;" edge="1" parent="tAO7QPDltxqqwsBGp54e-1" target="tAO7QPDltxqqwsBGp54e-15">
          <mxGeometry width="50" height="50" relative="1" as="geometry">
            <mxPoint x="650" y="400" as="sourcePoint" />
            <mxPoint x="770" y="370" as="targetPoint" />
          </mxGeometry>
        </mxCell>
        <mxCell id="tAO7QPDltxqqwsBGp54e-14" value="" style="group" vertex="1" connectable="0" parent="tAO7QPDltxqqwsBGp54e-1">
          <mxGeometry x="740" y="430" width="68" height="94.15" as="geometry" />
        </mxCell>
        <mxCell id="tAO7QPDltxqqwsBGp54e-15" value="" style="sketch=0;points=[[0,0,0],[0.25,0,0],[0.5,0,0],[0.75,0,0],[1,0,0],[0,1,0],[0.25,1,0],[0.5,1,0],[0.75,1,0],[1,1,0],[0,0.25,0],[0,0.5,0],[0,0.75,0],[1,0.25,0],[1,0.5,0],[1,0.75,0]];outlineConnect=0;fontColor=#232F3E;gradientColor=#945DF2;gradientDirection=north;fillColor=#5A30B5;strokeColor=#ffffff;dashed=0;verticalLabelPosition=bottom;verticalAlign=top;align=center;html=1;fontSize=12;fontStyle=0;aspect=fixed;shape=mxgraph.aws4.resourceIcon;resIcon=mxgraph.aws4.cloudfront;shadow=0;" vertex="1" parent="tAO7QPDltxqqwsBGp54e-14">
          <mxGeometry width="67.99722222222223" height="67.99722222222223" as="geometry" />
        </mxCell>
        <mxCell id="tAO7QPDltxqqwsBGp54e-16" value="Cloudfront" style="text;html=1;strokeColor=none;fillColor=none;align=center;verticalAlign=middle;whiteSpace=wrap;rounded=0;shadow=0;" vertex="1" parent="tAO7QPDltxqqwsBGp54e-14">
          <mxGeometry x="7.846153846153847" y="67.99722222222223" width="52.30769230769231" height="26.15277777777778" as="geometry" />
        </mxCell>
        <mxCell id="tAO7QPDltxqqwsBGp54e-17" value="" style="edgeStyle=orthogonalEdgeStyle;rounded=0;orthogonalLoop=1;jettySize=auto;html=1;entryX=0;entryY=0.5;entryDx=0;entryDy=0;entryPerimeter=0;" edge="1" parent="tAO7QPDltxqqwsBGp54e-1" source="tAO7QPDltxqqwsBGp54e-15" target="tAO7QPDltxqqwsBGp54e-23">
          <mxGeometry relative="1" as="geometry">
            <mxPoint x="870" y="480" as="targetPoint" />
          </mxGeometry>
        </mxCell>
        <mxCell id="tAO7QPDltxqqwsBGp54e-18" value="" style="group" vertex="1" connectable="0" parent="tAO7QPDltxqqwsBGp54e-1">
          <mxGeometry x="855" y="300" width="102" height="103.85" as="geometry" />
        </mxCell>
        <mxCell id="tAO7QPDltxqqwsBGp54e-19" value="" style="group" vertex="1" connectable="0" parent="tAO7QPDltxqqwsBGp54e-18">
          <mxGeometry width="102" height="103.85" as="geometry" />
        </mxCell>
        <mxCell id="tAO7QPDltxqqwsBGp54e-20" value="&lt;span style=&quot;color: rgb(0, 0, 0); font-family: Helvetica; font-size: 12px; font-style: normal; font-variant-ligatures: normal; font-variant-caps: normal; font-weight: 400; letter-spacing: normal; orphans: 2; text-indent: 0px; text-transform: none; widows: 2; word-spacing: 0px; -webkit-text-stroke-width: 0px; background-color: rgb(251, 251, 251); text-decoration-thickness: initial; text-decoration-style: initial; text-decoration-color: initial; float: none; display: inline !important;&quot;&gt;Secure Headers Lambda Functions&amp;nbsp;&lt;/span&gt;" style="text;whiteSpace=wrap;html=1;align=center;" vertex="1" parent="tAO7QPDltxqqwsBGp54e-19">
          <mxGeometry y="66.76071428571429" width="102" height="37.089285714285715" as="geometry" />
        </mxCell>
        <mxCell id="tAO7QPDltxqqwsBGp54e-21" value="" style="outlineConnect=0;dashed=0;verticalLabelPosition=bottom;verticalAlign=top;align=center;html=1;shape=mxgraph.aws3.lambda_function;fillColor=#F58534;gradientColor=none;shadow=0;" vertex="1" parent="tAO7QPDltxqqwsBGp54e-19">
          <mxGeometry x="19.009090909090908" width="63.98181818181818" height="66.76071428571429" as="geometry" />
        </mxCell>
        <mxCell id="tAO7QPDltxqqwsBGp54e-22" value="" style="group" vertex="1" connectable="0" parent="tAO7QPDltxqqwsBGp54e-1">
          <mxGeometry x="920" y="550" width="101.85" height="100" as="geometry" />
        </mxCell>
        <mxCell id="tAO7QPDltxqqwsBGp54e-23" value="" style="sketch=0;points=[[0,0,0],[0.25,0,0],[0.5,0,0],[0.75,0,0],[1,0,0],[0,1,0],[0.25,1,0],[0.5,1,0],[0.75,1,0],[1,1,0],[0,0.25,0],[0,0.5,0],[0,0.75,0],[1,0.25,0],[1,0.5,0],[1,0.75,0]];outlineConnect=0;fontColor=#232F3E;gradientColor=#60A337;gradientDirection=north;fillColor=#277116;strokeColor=#ffffff;dashed=0;verticalLabelPosition=bottom;verticalAlign=top;align=center;html=1;fontSize=12;fontStyle=0;aspect=fixed;shape=mxgraph.aws4.resourceIcon;resIcon=mxgraph.aws4.s3;shadow=0;" vertex="1" parent="tAO7QPDltxqqwsBGp54e-22">
          <mxGeometry x="15.740454545454545" width="72.22090909090909" height="72.22090909090909" as="geometry" />
        </mxCell>
        <mxCell id="tAO7QPDltxqqwsBGp54e-24" value="&lt;span style=&quot;color: rgb(0, 0, 0); font-family: Helvetica; font-size: 12px; font-style: normal; font-variant-ligatures: normal; font-variant-caps: normal; font-weight: 400; letter-spacing: normal; orphans: 2; text-indent: 0px; text-transform: none; widows: 2; word-spacing: 0px; -webkit-text-stroke-width: 0px; background-color: rgb(251, 251, 251); text-decoration-thickness: initial; text-decoration-style: initial; text-decoration-color: initial; float: none; display: inline !important;&quot;&gt;S3 for uploads&lt;/span&gt;" style="text;whiteSpace=wrap;html=1;align=center;" vertex="1" parent="tAO7QPDltxqqwsBGp54e-22">
          <mxGeometry y="72.22222222222223" width="101.85" height="27.77777777777778" as="geometry" />
        </mxCell>
        <mxCell id="tAO7QPDltxqqwsBGp54e-25" value="" style="group" vertex="1" connectable="0" parent="tAO7QPDltxqqwsBGp54e-1">
          <mxGeometry x="1100" y="400" width="99.81" height="98" as="geometry" />
        </mxCell>
        <mxCell id="tAO7QPDltxqqwsBGp54e-26" value="" style="sketch=0;points=[[0,0,0],[0.25,0,0],[0.5,0,0],[0.75,0,0],[1,0,0],[0,1,0],[0.25,1,0],[0.5,1,0],[0.75,1,0],[1,1,0],[0,0.25,0],[0,0.5,0],[0,0.75,0],[1,0.25,0],[1,0.5,0],[1,0.75,0]];outlineConnect=0;fontColor=#232F3E;gradientColor=#60A337;gradientDirection=north;fillColor=#277116;strokeColor=#ffffff;dashed=0;verticalLabelPosition=bottom;verticalAlign=top;align=center;html=1;fontSize=12;fontStyle=0;aspect=fixed;shape=mxgraph.aws4.resourceIcon;resIcon=mxgraph.aws4.s3;shadow=0;" vertex="1" parent="tAO7QPDltxqqwsBGp54e-25">
          <mxGeometry x="15.425181818181818" width="70.77436363636363" height="70.77436363636363" as="geometry" />
        </mxCell>
        <mxCell id="tAO7QPDltxqqwsBGp54e-27" value="&lt;span style=&quot;color: rgb(0, 0, 0); font-family: Helvetica; font-size: 12px; font-style: normal; font-variant-ligatures: normal; font-variant-caps: normal; font-weight: 400; letter-spacing: normal; orphans: 2; text-indent: 0px; text-transform: none; widows: 2; word-spacing: 0px; -webkit-text-stroke-width: 0px; background-color: rgb(251, 251, 251); text-decoration-thickness: initial; text-decoration-style: initial; text-decoration-color: initial; float: none; display: inline !important;&quot;&gt;S3 for website&lt;/span&gt;" style="text;whiteSpace=wrap;html=1;align=center;" vertex="1" parent="tAO7QPDltxqqwsBGp54e-25">
          <mxGeometry y="70.77777777777779" width="99.81" height="27.22222222222222" as="geometry" />
        </mxCell>
        <mxCell id="tAO7QPDltxqqwsBGp54e-28" value="" style="group" vertex="1" connectable="0" parent="tAO7QPDltxqqwsBGp54e-1">
          <mxGeometry x="910" y="180" width="70.78" height="98" as="geometry" />
        </mxCell>
        <mxCell id="tAO7QPDltxqqwsBGp54e-29" value="" style="sketch=0;points=[[0,0,0],[0.25,0,0],[0.5,0,0],[0.75,0,0],[1,0,0],[0,1,0],[0.25,1,0],[0.5,1,0],[0.75,1,0],[1,1,0],[0,0.25,0],[0,0.5,0],[0,0.75,0],[1,0.25,0],[1,0.5,0],[1,0.75,0]];outlineConnect=0;fontColor=#232F3E;gradientColor=#945DF2;gradientDirection=north;fillColor=#5A30B5;strokeColor=#ffffff;dashed=0;verticalLabelPosition=bottom;verticalAlign=top;align=center;html=1;fontSize=12;fontStyle=0;aspect=fixed;shape=mxgraph.aws4.resourceIcon;resIcon=mxgraph.aws4.cloudfront;shadow=0;" vertex="1" parent="tAO7QPDltxqqwsBGp54e-28">
          <mxGeometry width="70.77777777777779" height="70.77777777777779" as="geometry" />
        </mxCell>
        <mxCell id="tAO7QPDltxqqwsBGp54e-30" value="Cloudfront" style="text;html=1;strokeColor=none;fillColor=none;align=center;verticalAlign=middle;whiteSpace=wrap;rounded=0;shadow=0;" vertex="1" parent="tAO7QPDltxqqwsBGp54e-28">
          <mxGeometry x="8.166923076923077" y="70.77777777777779" width="54.44615384615385" height="27.22222222222222" as="geometry" />
        </mxCell>
        <mxCell id="tAO7QPDltxqqwsBGp54e-31" style="edgeStyle=orthogonalEdgeStyle;rounded=0;orthogonalLoop=1;jettySize=auto;html=1;entryX=0.5;entryY=0;entryDx=0;entryDy=0;entryPerimeter=0;" edge="1" parent="tAO7QPDltxqqwsBGp54e-1" source="tAO7QPDltxqqwsBGp54e-29" target="tAO7QPDltxqqwsBGp54e-21">
          <mxGeometry relative="1" as="geometry" />
        </mxCell>
        <mxCell id="tAO7QPDltxqqwsBGp54e-32" value="" style="group" vertex="1" connectable="0" parent="tAO7QPDltxqqwsBGp54e-1">
          <mxGeometry x="810" y="180" width="101.85" height="100" as="geometry" />
        </mxCell>
        <mxCell id="tAO7QPDltxqqwsBGp54e-33" value="&lt;span style=&quot;color: rgb(0, 0, 0); font-family: Helvetica; font-size: 12px; font-style: normal; font-variant-ligatures: normal; font-variant-caps: normal; font-weight: 400; letter-spacing: normal; orphans: 2; text-indent: 0px; text-transform: none; widows: 2; word-spacing: 0px; -webkit-text-stroke-width: 0px; background-color: rgb(251, 251, 251); text-decoration-thickness: initial; text-decoration-style: initial; text-decoration-color: initial; float: none; display: inline !important;&quot;&gt;AWS WAF&lt;/span&gt;" style="text;whiteSpace=wrap;html=1;align=center;" vertex="1" parent="tAO7QPDltxqqwsBGp54e-32">
          <mxGeometry y="72.22222222222223" width="101.85" height="27.77777777777778" as="geometry" />
        </mxCell>
        <mxCell id="tAO7QPDltxqqwsBGp54e-34" value="" style="sketch=0;points=[[0,0,0],[0.25,0,0],[0.5,0,0],[0.75,0,0],[1,0,0],[0,1,0],[0.25,1,0],[0.5,1,0],[0.75,1,0],[1,1,0],[0,0.25,0],[0,0.5,0],[0,0.75,0],[1,0.25,0],[1,0.5,0],[1,0.75,0]];outlineConnect=0;fontColor=#232F3E;gradientColor=#F54749;gradientDirection=north;fillColor=#C7131F;strokeColor=#ffffff;dashed=0;verticalLabelPosition=bottom;verticalAlign=top;align=center;html=1;fontSize=12;fontStyle=0;aspect=fixed;shape=mxgraph.aws4.resourceIcon;resIcon=mxgraph.aws4.waf;shadow=0;" vertex="1" parent="tAO7QPDltxqqwsBGp54e-32">
          <mxGeometry x="14.814545454545454" width="72.22090909090909" height="72.22090909090909" as="geometry" />
        </mxCell>
        <mxCell id="tAO7QPDltxqqwsBGp54e-35" value="ALB" style="points=[[0,0],[0.25,0],[0.5,0],[0.75,0],[1,0],[1,0.25],[1,0.5],[1,0.75],[1,1],[0.75,1],[0.5,1],[0.25,1],[0,1],[0,0.75],[0,0.5],[0,0.25]];outlineConnect=0;gradientColor=none;html=1;whiteSpace=wrap;fontSize=12;fontStyle=0;container=1;pointerEvents=0;collapsible=0;recursiveResize=0;shape=mxgraph.aws4.group;grIcon=mxgraph.aws4.group_aws_cloud_alt;strokeColor=#232F3E;fillColor=none;verticalAlign=top;align=left;spacingLeft=30;fontColor=#232F3E;dashed=1;shadow=0;dashPattern=12 12;" vertex="1" parent="tAO7QPDltxqqwsBGp54e-1">
          <mxGeometry x="1070" y="150" width="270" height="150" as="geometry" />
        </mxCell>
        <mxCell id="tAO7QPDltxqqwsBGp54e-36" value="" style="group" vertex="1" connectable="0" parent="tAO7QPDltxqqwsBGp54e-35">
          <mxGeometry x="4" y="43" width="110" height="102" as="geometry" />
        </mxCell>
        <mxCell id="tAO7QPDltxqqwsBGp54e-37" value="" style="outlineConnect=0;dashed=0;verticalLabelPosition=bottom;verticalAlign=top;align=center;html=1;shape=mxgraph.aws3.application_load_balancer;fillColor=#F58534;gradientColor=none;shadow=0;" vertex="1" parent="tAO7QPDltxqqwsBGp54e-36">
          <mxGeometry x="17.200000000000045" width="69" height="72" as="geometry" />
        </mxCell>
        <mxCell id="tAO7QPDltxqqwsBGp54e-38" value="Load Balancer" style="text;whiteSpace=wrap;html=1;align=center;" vertex="1" parent="tAO7QPDltxqqwsBGp54e-36">
          <mxGeometry y="72" width="110" height="30" as="geometry" />
        </mxCell>
        <mxCell id="tAO7QPDltxqqwsBGp54e-39" style="edgeStyle=orthogonalEdgeStyle;rounded=0;orthogonalLoop=1;jettySize=auto;html=1;" edge="1" parent="tAO7QPDltxqqwsBGp54e-35" source="tAO7QPDltxqqwsBGp54e-37" target="tAO7QPDltxqqwsBGp54e-41">
          <mxGeometry relative="1" as="geometry" />
        </mxCell>
        <mxCell id="tAO7QPDltxqqwsBGp54e-40" value="" style="group" vertex="1" connectable="0" parent="tAO7QPDltxqqwsBGp54e-35">
          <mxGeometry x="150" y="20" width="110" height="100" as="geometry" />
        </mxCell>
        <mxCell id="tAO7QPDltxqqwsBGp54e-41" value="" style="sketch=0;points=[[0,0,0],[0.25,0,0],[0.5,0,0],[0.75,0,0],[1,0,0],[0,1,0],[0.25,1,0],[0.5,1,0],[0.75,1,0],[1,1,0],[0,0.25,0],[0,0.5,0],[0,0.75,0],[1,0.25,0],[1,0.5,0],[1,0.75,0]];outlineConnect=0;fontColor=#232F3E;gradientColor=#F78E04;gradientDirection=north;fillColor=#D05C17;strokeColor=#ffffff;dashed=0;verticalLabelPosition=bottom;verticalAlign=top;align=center;html=1;fontSize=12;fontStyle=0;aspect=fixed;shape=mxgraph.aws4.resourceIcon;resIcon=mxgraph.aws4.ec2;shadow=0;dashPattern=12 12;" vertex="1" parent="tAO7QPDltxqqwsBGp54e-40">
          <mxGeometry x="20" width="70" height="70" as="geometry" />
        </mxCell>
        <mxCell id="tAO7QPDltxqqwsBGp54e-42" value="EC2 Instance" style="text;whiteSpace=wrap;html=1;align=center;" vertex="1" parent="tAO7QPDltxqqwsBGp54e-40">
          <mxGeometry y="70" width="110" height="30" as="geometry" />
        </mxCell>
        <mxCell id="tAO7QPDltxqqwsBGp54e-43" style="edgeStyle=orthogonalEdgeStyle;rounded=0;orthogonalLoop=1;jettySize=auto;html=1;entryX=0;entryY=0.5;entryDx=0;entryDy=0;entryPerimeter=0;" edge="1" parent="tAO7QPDltxqqwsBGp54e-1" source="tAO7QPDltxqqwsBGp54e-29" target="tAO7QPDltxqqwsBGp54e-37">
          <mxGeometry relative="1" as="geometry" />
        </mxCell>
        <mxCell id="tAO7QPDltxqqwsBGp54e-13" style="edgeStyle=orthogonalEdgeStyle;rounded=0;orthogonalLoop=1;jettySize=auto;html=1;entryX=0;entryY=0.5;entryDx=0;entryDy=0;entryPerimeter=0;" edge="1" parent="tAO7QPDltxqqwsBGp54e-1" source="tAO7QPDltxqqwsBGp54e-34" target="tAO7QPDltxqqwsBGp54e-29">
          <mxGeometry relative="1" as="geometry" />
        </mxCell>
        <mxCell id="tAO7QPDltxqqwsBGp54e-47" style="edgeStyle=orthogonalEdgeStyle;rounded=0;orthogonalLoop=1;jettySize=auto;html=1;entryX=0;entryY=0.5;entryDx=0;entryDy=0;entryPerimeter=0;" edge="1" parent="tAO7QPDltxqqwsBGp54e-1" source="tAO7QPDltxqqwsBGp54e-21" target="tAO7QPDltxqqwsBGp54e-26">
          <mxGeometry relative="1" as="geometry" />
        </mxCell>
        <mxCell id="tAO7QPDltxqqwsBGp54e-48" value="" style="swimlane;startSize=0;shadow=0;dashed=1;dashPattern=12 12;" vertex="1" parent="tAO7QPDltxqqwsBGp54e-1">
          <mxGeometry x="800" y="140" width="210" height="280" as="geometry">
            <mxRectangle x="530" y="10" width="50" height="40" as="alternateBounds" />
          </mxGeometry>
        </mxCell>
        <mxCell id="tAO7QPDltxqqwsBGp54e-49" value="Cloudfront" style="text;whiteSpace=wrap;html=1;align=left;" vertex="1" parent="tAO7QPDltxqqwsBGp54e-48">
          <mxGeometry x="21" width="110" height="20" as="geometry" />
        </mxCell>
        <mxCell id="v4xODv1n0rprYDWPKeAr-4" value="" style="swimlane;startSize=0;shadow=0;dashed=1;dashPattern=12 12;fillColor=#60a917;fontColor=#ffffff;strokeColor=#2D7600;" vertex="1" parent="tAO7QPDltxqqwsBGp54e-1">
          <mxGeometry x="648" y="560" width="210" height="210" as="geometry">
            <mxRectangle x="530" y="10" width="50" height="40" as="alternateBounds" />
          </mxGeometry>
        </mxCell>
        <mxCell id="v4xODv1n0rprYDWPKeAr-5" value="Private Subnet" style="text;whiteSpace=wrap;html=1;align=left;" vertex="1" parent="v4xODv1n0rprYDWPKeAr-4">
          <mxGeometry x="21" width="110" height="20" as="geometry" />
        </mxCell>
        <mxCell id="v4xODv1n0rprYDWPKeAr-6" value="" style="group" vertex="1" connectable="0" parent="v4xODv1n0rprYDWPKeAr-4">
          <mxGeometry x="52" y="90" width="110" height="100" as="geometry" />
        </mxCell>
        <mxCell id="v4xODv1n0rprYDWPKeAr-7" value="" style="sketch=0;points=[[0,0,0],[0.25,0,0],[0.5,0,0],[0.75,0,0],[1,0,0],[0,1,0],[0.25,1,0],[0.5,1,0],[0.75,1,0],[1,1,0],[0,0.25,0],[0,0.5,0],[0,0.75,0],[1,0.25,0],[1,0.5,0],[1,0.75,0]];outlineConnect=0;fontColor=#232F3E;gradientColor=#F78E04;gradientDirection=north;fillColor=#D05C17;strokeColor=#ffffff;dashed=0;verticalLabelPosition=bottom;verticalAlign=top;align=center;html=1;fontSize=12;fontStyle=0;aspect=fixed;shape=mxgraph.aws4.resourceIcon;resIcon=mxgraph.aws4.ec2;shadow=0;dashPattern=12 12;" vertex="1" parent="v4xODv1n0rprYDWPKeAr-6">
          <mxGeometry x="20" y="-30" width="70" height="70" as="geometry" />
        </mxCell>
        <mxCell id="v4xODv1n0rprYDWPKeAr-8" value="Wordpress &lt;br&gt;EC2 Instance" style="text;whiteSpace=wrap;html=1;align=center;" vertex="1" parent="v4xODv1n0rprYDWPKeAr-6">
          <mxGeometry y="50" width="110" height="30" as="geometry" />
        </mxCell>
        <mxCell id="v4xODv1n0rprYDWPKeAr-9" style="edgeStyle=orthogonalEdgeStyle;rounded=1;orthogonalLoop=1;jettySize=auto;html=1;entryX=0;entryY=0.5;entryDx=0;entryDy=0;strokeColor=#2D7600;strokeWidth=2;fillColor=#60a917;" edge="1" parent="tAO7QPDltxqqwsBGp54e-1" source="tAO7QPDltxqqwsBGp54e-8" target="v4xODv1n0rprYDWPKeAr-4">
          <mxGeometry relative="1" as="geometry" />
        </mxCell>
        <mxCell id="v4xODv1n0rprYDWPKeAr-17" style="edgeStyle=orthogonalEdgeStyle;rounded=1;orthogonalLoop=1;jettySize=auto;html=1;entryX=0.25;entryY=1;entryDx=0;entryDy=0;strokeColor=#2D7600;strokeWidth=2;fillColor=#60a917;" edge="1" parent="tAO7QPDltxqqwsBGp54e-1" source="v4xODv1n0rprYDWPKeAr-13" target="tAO7QPDltxqqwsBGp54e-8">
          <mxGeometry relative="1" as="geometry" />
        </mxCell>
        <mxCell id="v4xODv1n0rprYDWPKeAr-18" style="edgeStyle=orthogonalEdgeStyle;rounded=1;orthogonalLoop=1;jettySize=auto;html=1;entryX=0.5;entryY=1;entryDx=0;entryDy=0;strokeColor=#2D7600;strokeWidth=2;fillColor=#60a917;" edge="1" parent="tAO7QPDltxqqwsBGp54e-1" source="v4xODv1n0rprYDWPKeAr-13" target="tAO7QPDltxqqwsBGp54e-27">
          <mxGeometry relative="1" as="geometry">
            <Array as="points">
              <mxPoint x="490" y="830" />
              <mxPoint x="1150" y="830" />
            </Array>
          </mxGeometry>
        </mxCell>
        <mxCell id="v4xODv1n0rprYDWPKeAr-14" value="" style="group" vertex="1" connectable="0" parent="tAO7QPDltxqqwsBGp54e-1">
          <mxGeometry x="265" y="640" width="110" height="80" as="geometry" />
        </mxCell>
        <mxCell id="v4xODv1n0rprYDWPKeAr-0" value="User connected with VPN" style="text;whiteSpace=wrap;html=1;align=center;" vertex="1" parent="v4xODv1n0rprYDWPKeAr-14">
          <mxGeometry y="50" width="110" height="30" as="geometry" />
        </mxCell>
        <mxCell id="v4xODv1n0rprYDWPKeAr-11" value="" style="sketch=0;outlineConnect=0;fontColor=#ffffff;fillColor=#60a917;strokeColor=#2D7600;dashed=0;verticalLabelPosition=bottom;verticalAlign=top;align=center;html=1;fontSize=12;fontStyle=0;aspect=fixed;pointerEvents=1;shape=mxgraph.aws4.user;shadow=0;dashPattern=12 12;" vertex="1" parent="v4xODv1n0rprYDWPKeAr-14">
          <mxGeometry x="35" width="50" height="50" as="geometry" />
        </mxCell>
        <mxCell id="v4xODv1n0rprYDWPKeAr-16" style="edgeStyle=orthogonalEdgeStyle;rounded=1;orthogonalLoop=1;jettySize=auto;html=1;entryX=0;entryY=0.75;entryDx=0;entryDy=0;strokeColor=#2D7600;strokeWidth=2;fillColor=#60a917;" edge="1" parent="tAO7QPDltxqqwsBGp54e-1" source="v4xODv1n0rprYDWPKeAr-11" target="v4xODv1n0rprYDWPKeAr-13">
          <mxGeometry relative="1" as="geometry" />
        </mxCell>
        <mxCell id="v4xODv1n0rprYDWPKeAr-20" value="" style="group" vertex="1" connectable="0" parent="tAO7QPDltxqqwsBGp54e-1">
          <mxGeometry x="435" y="620" width="110" height="100" as="geometry" />
        </mxCell>
        <mxCell id="v4xODv1n0rprYDWPKeAr-13" value="" style="aspect=fixed;perimeter=ellipsePerimeter;html=1;align=center;shadow=0;dashed=0;fontColor=#4277BB;labelBackgroundColor=#ffffff;fontSize=12;spacingTop=3;image;image=img/lib/ibm/devops/build_test.svg;dashPattern=12 12;fillColor=#e17312;" vertex="1" parent="v4xODv1n0rprYDWPKeAr-20">
          <mxGeometry x="25" y="40" width="60" height="60" as="geometry" />
        </mxCell>
        <mxCell id="v4xODv1n0rprYDWPKeAr-19" value="Jenkins" style="text;whiteSpace=wrap;html=1;align=center;" vertex="1" parent="v4xODv1n0rprYDWPKeAr-20">
          <mxGeometry width="110" height="30" as="geometry" />
        </mxCell>
      </root>
    </mxGraphModel>
  </diagram>
  <diagram name="RC- Website" id="O3OFaURThC4ClE34AtTf">
    <mxGraphModel dx="1908" dy="1182" grid="1" gridSize="10" guides="1" tooltips="1" connect="1" arrows="1" fold="1" page="1" pageScale="1" pageWidth="1600" pageHeight="900" math="0" shadow="0">
      <root>
        <mxCell id="YKuHqWBYl2i7tkYfr99E-0" />
        <mxCell id="YKuHqWBYl2i7tkYfr99E-1" parent="YKuHqWBYl2i7tkYfr99E-0" />
        <mxCell id="YKuHqWBYl2i7tkYfr99E-13" style="edgeStyle=orthogonalEdgeStyle;rounded=0;orthogonalLoop=1;jettySize=auto;html=1;entryX=0;entryY=0.5;entryDx=0;entryDy=0;entryPerimeter=0;" edge="1" parent="YKuHqWBYl2i7tkYfr99E-1" target="YKuHqWBYl2i7tkYfr99E-29">
          <mxGeometry relative="1" as="geometry">
            <mxPoint x="627.0354545454547" y="86.10000000000002" as="sourcePoint" />
          </mxGeometry>
        </mxCell>
        <mxCell id="YKuHqWBYl2i7tkYfr99E-31" style="edgeStyle=orthogonalEdgeStyle;rounded=0;orthogonalLoop=1;jettySize=auto;html=1;entryX=0.5;entryY=0;entryDx=0;entryDy=0;entryPerimeter=0;" edge="1" parent="YKuHqWBYl2i7tkYfr99E-1" target="YKuHqWBYl2i7tkYfr99E-21">
          <mxGeometry relative="1" as="geometry">
            <mxPoint x="675.4000000000001" y="120.77777777777783" as="sourcePoint" />
          </mxGeometry>
        </mxCell>
        <mxCell id="aS86A2_2UoN7vRWrRw91-36" value="" style="group" vertex="1" connectable="0" parent="YKuHqWBYl2i7tkYfr99E-1">
          <mxGeometry x="340" y="220" width="1010" height="534.15" as="geometry" />
        </mxCell>
        <mxCell id="YKuHqWBYl2i7tkYfr99E-2" value="users" style="sketch=0;outlineConnect=0;fontColor=#ffffff;strokeColor=#001DBC;fillColor=#0050ef;dashed=0;verticalLabelPosition=bottom;verticalAlign=top;align=center;html=1;fontSize=12;fontStyle=0;aspect=fixed;shape=mxgraph.aws4.illustration_users;pointerEvents=1" vertex="1" parent="aS86A2_2UoN7vRWrRw91-36">
          <mxGeometry y="190" width="60" height="60" as="geometry" />
        </mxCell>
        <mxCell id="YKuHqWBYl2i7tkYfr99E-3" value="" style="edgeStyle=orthogonalEdgeStyle;html=1;endArrow=block;elbow=vertical;startArrow=none;endFill=1;strokeColor=#545B64;rounded=0;entryX=-0.06;entryY=0.821;entryDx=0;entryDy=0;entryPerimeter=0;" edge="1" parent="aS86A2_2UoN7vRWrRw91-36" source="YKuHqWBYl2i7tkYfr99E-2" target="YKuHqWBYl2i7tkYfr99E-4">
          <mxGeometry width="100" relative="1" as="geometry">
            <mxPoint x="90" y="235" as="sourcePoint" />
            <mxPoint x="190" y="235" as="targetPoint" />
          </mxGeometry>
        </mxCell>
        <mxCell id="YKuHqWBYl2i7tkYfr99E-4" value="devices" style="sketch=0;outlineConnect=0;strokeColor=#2D7600;fillColor=#60a917;dashed=0;verticalLabelPosition=bottom;verticalAlign=top;align=center;html=1;fontSize=12;fontStyle=0;aspect=fixed;shape=mxgraph.aws4.illustration_devices;pointerEvents=1;fontColor=#ffffff;" vertex="1" parent="aS86A2_2UoN7vRWrRw91-36">
          <mxGeometry x="140" y="189" width="83.56" height="61" as="geometry" />
        </mxCell>
        <mxCell id="YKuHqWBYl2i7tkYfr99E-5" value="" style="edgeStyle=orthogonalEdgeStyle;html=1;endArrow=block;elbow=vertical;startArrow=none;endFill=1;strokeColor=#545B64;rounded=0;" edge="1" parent="aS86A2_2UoN7vRWrRw91-36">
          <mxGeometry width="100" relative="1" as="geometry">
            <mxPoint x="223.56" y="230" as="sourcePoint" />
            <mxPoint x="280" y="230" as="targetPoint" />
          </mxGeometry>
        </mxCell>
        <mxCell id="YKuHqWBYl2i7tkYfr99E-6" value="" style="group;fillColor=#d5e8d4;strokeColor=#82b366;" vertex="1" connectable="0" parent="aS86A2_2UoN7vRWrRw91-36">
          <mxGeometry x="280" y="189" width="80" height="111" as="geometry" />
        </mxCell>
        <mxCell id="YKuHqWBYl2i7tkYfr99E-7" value="" style="sketch=0;points=[[0,0,0],[0.25,0,0],[0.5,0,0],[0.75,0,0],[1,0,0],[0,1,0],[0.25,1,0],[0.5,1,0],[0.75,1,0],[1,1,0],[0,0.25,0],[0,0.5,0],[0,0.75,0],[1,0.25,0],[1,0.5,0],[1,0.75,0]];outlineConnect=0;gradientDirection=north;dashed=0;verticalLabelPosition=bottom;verticalAlign=top;align=center;html=1;fontSize=12;fontStyle=0;aspect=fixed;shape=mxgraph.aws4.resourceIcon;resIcon=mxgraph.aws4.route_53;shadow=0;fillColor=#d5e8d4;strokeColor=#82b366;" vertex="1" parent="YKuHqWBYl2i7tkYfr99E-6">
          <mxGeometry width="78" height="78" as="geometry" />
        </mxCell>
        <mxCell id="YKuHqWBYl2i7tkYfr99E-8" value="Route 53&lt;br&gt;(optional)" style="text;html=1;strokeColor=none;fillColor=none;align=center;verticalAlign=middle;whiteSpace=wrap;rounded=0;shadow=0;" vertex="1" parent="YKuHqWBYl2i7tkYfr99E-6">
          <mxGeometry x="7" y="81" width="71" height="30" as="geometry" />
        </mxCell>
        <mxCell id="YKuHqWBYl2i7tkYfr99E-9" value="" style="endArrow=classic;html=1;rounded=0;exitX=1;exitY=0.5;exitDx=0;exitDy=0;exitPerimeter=0;entryX=-0.013;entryY=0.359;entryDx=0;entryDy=0;entryPerimeter=0;" edge="1" parent="aS86A2_2UoN7vRWrRw91-36" source="YKuHqWBYl2i7tkYfr99E-7">
          <mxGeometry width="50" height="50" relative="1" as="geometry">
            <mxPoint x="430" y="280" as="sourcePoint" />
            <mxPoint x="515.27" y="100.51999999999998" as="targetPoint" />
          </mxGeometry>
        </mxCell>
        <mxCell id="YKuHqWBYl2i7tkYfr99E-10" value="" style="endArrow=classic;html=1;rounded=0;" edge="1" parent="aS86A2_2UoN7vRWrRw91-36" target="YKuHqWBYl2i7tkYfr99E-15">
          <mxGeometry width="50" height="50" relative="1" as="geometry">
            <mxPoint x="360" y="260" as="sourcePoint" />
            <mxPoint x="480" y="230" as="targetPoint" />
          </mxGeometry>
        </mxCell>
        <mxCell id="YKuHqWBYl2i7tkYfr99E-14" value="" style="group" vertex="1" connectable="0" parent="aS86A2_2UoN7vRWrRw91-36">
          <mxGeometry x="500" y="440" width="68" height="94.15" as="geometry" />
        </mxCell>
        <mxCell id="YKuHqWBYl2i7tkYfr99E-15" value="" style="sketch=0;points=[[0,0,0],[0.25,0,0],[0.5,0,0],[0.75,0,0],[1,0,0],[0,1,0],[0.25,1,0],[0.5,1,0],[0.75,1,0],[1,1,0],[0,0.25,0],[0,0.5,0],[0,0.75,0],[1,0.25,0],[1,0.5,0],[1,0.75,0]];outlineConnect=0;fontColor=#232F3E;gradientColor=#945DF2;gradientDirection=north;fillColor=#5A30B5;strokeColor=#ffffff;dashed=0;verticalLabelPosition=bottom;verticalAlign=top;align=center;html=1;fontSize=12;fontStyle=0;aspect=fixed;shape=mxgraph.aws4.resourceIcon;resIcon=mxgraph.aws4.cloudfront;shadow=0;" vertex="1" parent="YKuHqWBYl2i7tkYfr99E-14">
          <mxGeometry width="67.99722222222223" height="67.99722222222223" as="geometry" />
        </mxCell>
        <mxCell id="YKuHqWBYl2i7tkYfr99E-16" value="Cloudfront" style="text;html=1;strokeColor=none;fillColor=none;align=center;verticalAlign=middle;whiteSpace=wrap;rounded=0;shadow=0;" vertex="1" parent="YKuHqWBYl2i7tkYfr99E-14">
          <mxGeometry x="7.846153846153847" y="67.99722222222223" width="52.30769230769231" height="26.15277777777778" as="geometry" />
        </mxCell>
        <mxCell id="YKuHqWBYl2i7tkYfr99E-17" value="" style="edgeStyle=orthogonalEdgeStyle;rounded=0;orthogonalLoop=1;jettySize=auto;html=1;entryX=0;entryY=0.5;entryDx=0;entryDy=0;entryPerimeter=0;" edge="1" parent="aS86A2_2UoN7vRWrRw91-36" source="YKuHqWBYl2i7tkYfr99E-15" target="YKuHqWBYl2i7tkYfr99E-23">
          <mxGeometry relative="1" as="geometry">
            <mxPoint x="580" y="340" as="targetPoint" />
          </mxGeometry>
        </mxCell>
        <mxCell id="YKuHqWBYl2i7tkYfr99E-22" value="" style="group" vertex="1" connectable="0" parent="aS86A2_2UoN7vRWrRw91-36">
          <mxGeometry x="710" y="390" width="101.85" height="100" as="geometry" />
        </mxCell>
        <mxCell id="YKuHqWBYl2i7tkYfr99E-23" value="" style="sketch=0;points=[[0,0,0],[0.25,0,0],[0.5,0,0],[0.75,0,0],[1,0,0],[0,1,0],[0.25,1,0],[0.5,1,0],[0.75,1,0],[1,1,0],[0,0.25,0],[0,0.5,0],[0,0.75,0],[1,0.25,0],[1,0.5,0],[1,0.75,0]];outlineConnect=0;fontColor=#232F3E;gradientColor=#60A337;gradientDirection=north;fillColor=#277116;strokeColor=#ffffff;dashed=0;verticalLabelPosition=bottom;verticalAlign=top;align=center;html=1;fontSize=12;fontStyle=0;aspect=fixed;shape=mxgraph.aws4.resourceIcon;resIcon=mxgraph.aws4.s3;shadow=0;" vertex="1" parent="YKuHqWBYl2i7tkYfr99E-22">
          <mxGeometry x="15.740454545454545" width="72.22090909090909" height="72.22090909090909" as="geometry" />
        </mxCell>
        <mxCell id="YKuHqWBYl2i7tkYfr99E-24" value="&lt;span style=&quot;color: rgb(0, 0, 0); font-family: Helvetica; font-size: 12px; font-style: normal; font-variant-ligatures: normal; font-variant-caps: normal; font-weight: 400; letter-spacing: normal; orphans: 2; text-indent: 0px; text-transform: none; widows: 2; word-spacing: 0px; -webkit-text-stroke-width: 0px; background-color: rgb(251, 251, 251); text-decoration-thickness: initial; text-decoration-style: initial; text-decoration-color: initial; float: none; display: inline !important;&quot;&gt;S3&lt;/span&gt;" style="text;whiteSpace=wrap;html=1;align=center;" vertex="1" parent="YKuHqWBYl2i7tkYfr99E-22">
          <mxGeometry y="72.22222222222223" width="101.85" height="27.77777777777778" as="geometry" />
        </mxCell>
        <mxCell id="YKuHqWBYl2i7tkYfr99E-35" value="Traget Group" style="points=[[0,0],[0.25,0],[0.5,0],[0.75,0],[1,0],[1,0.25],[1,0.5],[1,0.75],[1,1],[0.75,1],[0.5,1],[0.25,1],[0,1],[0,0.75],[0,0.5],[0,0.25]];outlineConnect=0;gradientColor=none;html=1;whiteSpace=wrap;fontSize=12;fontStyle=0;container=1;pointerEvents=0;collapsible=0;recursiveResize=0;shape=mxgraph.aws4.group;grIcon=mxgraph.aws4.group_aws_cloud_alt;strokeColor=#232F3E;fillColor=none;verticalAlign=top;align=left;spacingLeft=30;fontColor=#232F3E;dashed=1;shadow=0;dashPattern=12 12;" vertex="1" parent="aS86A2_2UoN7vRWrRw91-36">
          <mxGeometry x="670" width="130" height="370" as="geometry" />
        </mxCell>
        <mxCell id="aS86A2_2UoN7vRWrRw91-9" value="" style="group" vertex="1" connectable="0" parent="YKuHqWBYl2i7tkYfr99E-35">
          <mxGeometry x="10" y="260" width="110" height="100" as="geometry" />
        </mxCell>
        <mxCell id="aS86A2_2UoN7vRWrRw91-10" value="" style="sketch=0;points=[[0,0,0],[0.25,0,0],[0.5,0,0],[0.75,0,0],[1,0,0],[0,1,0],[0.25,1,0],[0.5,1,0],[0.75,1,0],[1,1,0],[0,0.25,0],[0,0.5,0],[0,0.75,0],[1,0.25,0],[1,0.5,0],[1,0.75,0]];outlineConnect=0;fontColor=#232F3E;gradientColor=#F78E04;gradientDirection=north;fillColor=#D05C17;strokeColor=#ffffff;dashed=0;verticalLabelPosition=bottom;verticalAlign=top;align=center;html=1;fontSize=12;fontStyle=0;aspect=fixed;shape=mxgraph.aws4.resourceIcon;resIcon=mxgraph.aws4.ec2;shadow=0;dashPattern=12 12;" vertex="1" parent="aS86A2_2UoN7vRWrRw91-9">
          <mxGeometry x="20" width="70" height="70" as="geometry" />
        </mxCell>
        <mxCell id="aS86A2_2UoN7vRWrRw91-11" value="EC2 Instance&lt;br&gt;Varnish&amp;nbsp;m5.large" style="text;whiteSpace=wrap;html=1;align=center;" vertex="1" parent="aS86A2_2UoN7vRWrRw91-9">
          <mxGeometry y="70" width="110" height="30" as="geometry" />
        </mxCell>
        <mxCell id="aS86A2_2UoN7vRWrRw91-22" value="" style="group" vertex="1" connectable="0" parent="YKuHqWBYl2i7tkYfr99E-35">
          <mxGeometry x="10" y="150" width="110" height="100" as="geometry" />
        </mxCell>
        <mxCell id="aS86A2_2UoN7vRWrRw91-23" value="" style="sketch=0;points=[[0,0,0],[0.25,0,0],[0.5,0,0],[0.75,0,0],[1,0,0],[0,1,0],[0.25,1,0],[0.5,1,0],[0.75,1,0],[1,1,0],[0,0.25,0],[0,0.5,0],[0,0.75,0],[1,0.25,0],[1,0.5,0],[1,0.75,0]];outlineConnect=0;fontColor=#232F3E;gradientColor=#F78E04;gradientDirection=north;fillColor=#D05C17;strokeColor=#ffffff;dashed=0;verticalLabelPosition=bottom;verticalAlign=top;align=center;html=1;fontSize=12;fontStyle=0;aspect=fixed;shape=mxgraph.aws4.resourceIcon;resIcon=mxgraph.aws4.ec2;shadow=0;dashPattern=12 12;" vertex="1" parent="aS86A2_2UoN7vRWrRw91-22">
          <mxGeometry x="20" width="70" height="70" as="geometry" />
        </mxCell>
        <mxCell id="aS86A2_2UoN7vRWrRw91-24" value="EC2 Instance&lt;br&gt;Varnish&amp;nbsp;m5.large" style="text;whiteSpace=wrap;html=1;align=center;" vertex="1" parent="aS86A2_2UoN7vRWrRw91-22">
          <mxGeometry y="70" width="110" height="30" as="geometry" />
        </mxCell>
        <mxCell id="aS86A2_2UoN7vRWrRw91-31" value="" style="sketch=0;outlineConnect=0;fontColor=#232F3E;gradientColor=none;fillColor=#e17312;strokeColor=none;dashed=0;verticalLabelPosition=bottom;verticalAlign=top;align=center;html=1;fontSize=12;fontStyle=0;aspect=fixed;pointerEvents=1;shape=mxgraph.aws4.topic;shadow=0;dashPattern=12 12;" vertex="1" parent="YKuHqWBYl2i7tkYfr99E-35">
          <mxGeometry x="26" y="40" width="78" height="67" as="geometry" />
        </mxCell>
        <mxCell id="aS86A2_2UoN7vRWrRw91-35" style="edgeStyle=orthogonalEdgeStyle;rounded=1;orthogonalLoop=1;jettySize=auto;html=1;strokeColor=#f08616;strokeWidth=2;shape=link;" edge="1" parent="YKuHqWBYl2i7tkYfr99E-35" source="aS86A2_2UoN7vRWrRw91-23" target="aS86A2_2UoN7vRWrRw91-31">
          <mxGeometry relative="1" as="geometry" />
        </mxCell>
        <mxCell id="YKuHqWBYl2i7tkYfr99E-36" value="" style="group" vertex="1" connectable="0" parent="aS86A2_2UoN7vRWrRw91-36">
          <mxGeometry x="500" y="60" width="110" height="102" as="geometry" />
        </mxCell>
        <mxCell id="YKuHqWBYl2i7tkYfr99E-37" value="" style="outlineConnect=0;dashed=0;verticalLabelPosition=bottom;verticalAlign=top;align=center;html=1;shape=mxgraph.aws3.application_load_balancer;fillColor=#F58534;gradientColor=none;shadow=0;" vertex="1" parent="YKuHqWBYl2i7tkYfr99E-36">
          <mxGeometry x="17.200000000000045" width="69" height="72" as="geometry" />
        </mxCell>
        <mxCell id="YKuHqWBYl2i7tkYfr99E-38" value="Load Balancer" style="text;whiteSpace=wrap;html=1;align=center;" vertex="1" parent="YKuHqWBYl2i7tkYfr99E-36">
          <mxGeometry y="72" width="110" height="30" as="geometry" />
        </mxCell>
        <mxCell id="aS86A2_2UoN7vRWrRw91-4" style="edgeStyle=orthogonalEdgeStyle;rounded=0;orthogonalLoop=1;jettySize=auto;html=1;" edge="1" parent="aS86A2_2UoN7vRWrRw91-36" source="YKuHqWBYl2i7tkYfr99E-37" target="YKuHqWBYl2i7tkYfr99E-35">
          <mxGeometry relative="1" as="geometry" />
        </mxCell>
        <mxCell id="aS86A2_2UoN7vRWrRw91-12" value="" style="group" vertex="1" connectable="0" parent="aS86A2_2UoN7vRWrRw91-36">
          <mxGeometry x="900" y="130" width="110" height="110" as="geometry" />
        </mxCell>
        <mxCell id="aS86A2_2UoN7vRWrRw91-13" value="" style="sketch=0;points=[[0,0,0],[0.25,0,0],[0.5,0,0],[0.75,0,0],[1,0,0],[0,1,0],[0.25,1,0],[0.5,1,0],[0.75,1,0],[1,1,0],[0,0.25,0],[0,0.5,0],[0,0.75,0],[1,0.25,0],[1,0.5,0],[1,0.75,0]];outlineConnect=0;fontColor=#232F3E;gradientColor=#F78E04;gradientDirection=north;fillColor=#D05C17;strokeColor=#ffffff;dashed=0;verticalLabelPosition=bottom;verticalAlign=top;align=center;html=1;fontSize=12;fontStyle=0;aspect=fixed;shape=mxgraph.aws4.resourceIcon;resIcon=mxgraph.aws4.ec2;shadow=0;dashPattern=12 12;" vertex="1" parent="aS86A2_2UoN7vRWrRw91-12">
          <mxGeometry x="20" width="70" height="70" as="geometry" />
        </mxCell>
        <mxCell id="aS86A2_2UoN7vRWrRw91-14" value="RC Wordpress (r5a.large)" style="text;whiteSpace=wrap;html=1;align=center;" vertex="1" parent="aS86A2_2UoN7vRWrRw91-12">
          <mxGeometry y="70" width="110" height="40" as="geometry" />
        </mxCell>
        <mxCell id="aS86A2_2UoN7vRWrRw91-16" style="edgeStyle=orthogonalEdgeStyle;rounded=0;orthogonalLoop=1;jettySize=auto;html=1;entryX=0;entryY=0.5;entryDx=0;entryDy=0;entryPerimeter=0;exitX=1;exitY=0.5;exitDx=0;exitDy=0;" edge="1" parent="aS86A2_2UoN7vRWrRw91-36" source="YKuHqWBYl2i7tkYfr99E-35" target="aS86A2_2UoN7vRWrRw91-13">
          <mxGeometry relative="1" as="geometry">
            <mxPoint x="920" y="180" as="targetPoint" />
          </mxGeometry>
        </mxCell>
      </root>
    </mxGraphModel>
  </diagram>
  <diagram id="-pqkvh8AobhBCcGfIGrT" name="Page-4">
    <mxGraphModel dx="1122" dy="695" grid="1" gridSize="10" guides="1" tooltips="1" connect="1" arrows="1" fold="1" page="1" pageScale="1" pageWidth="1600" pageHeight="900" math="0" shadow="0">
      <root>
        <mxCell id="0" />
        <mxCell id="1" parent="0" />
        <mxCell id="WWC2m4pwp560aqgwM4yx-28" value="" style="edgeStyle=orthogonalEdgeStyle;rounded=1;orthogonalLoop=1;jettySize=auto;html=1;strokeColor=#f08616;strokeWidth=2;fontSize=20;" edge="1" parent="1" source="WWC2m4pwp560aqgwM4yx-24" target="WWC2m4pwp560aqgwM4yx-25">
          <mxGeometry relative="1" as="geometry" />
        </mxCell>
        <mxCell id="WWC2m4pwp560aqgwM4yx-24" value="&lt;font style=&quot;font-size: 20px;&quot;&gt;Start&lt;/font&gt;" style="strokeWidth=2;html=1;shape=mxgraph.flowchart.start_1;whiteSpace=wrap;shadow=0;dashed=1;dashPattern=12 12;fillColor=#d0cee2;strokeColor=#56517e;" vertex="1" parent="1">
          <mxGeometry x="660" y="20" width="190" height="80" as="geometry" />
        </mxCell>
        <mxCell id="WWC2m4pwp560aqgwM4yx-42" style="edgeStyle=orthogonalEdgeStyle;rounded=1;orthogonalLoop=1;jettySize=auto;html=1;entryX=0.562;entryY=0.063;entryDx=0;entryDy=0;entryPerimeter=0;strokeColor=#f08616;strokeWidth=2;fontSize=14;" edge="1" parent="1" source="WWC2m4pwp560aqgwM4yx-25" target="WWC2m4pwp560aqgwM4yx-29">
          <mxGeometry relative="1" as="geometry" />
        </mxCell>
        <mxCell id="WWC2m4pwp560aqgwM4yx-25" value="&lt;span style=&quot;font-size: 20px;&quot;&gt;npm run build&lt;/span&gt;" style="shape=process;whiteSpace=wrap;html=1;backgroundOutline=1;shadow=0;dashed=1;dashPattern=12 12;fillColor=#b0e3e6;strokeColor=#0e8088;" vertex="1" parent="1">
          <mxGeometry x="670" y="140" width="190" height="60" as="geometry" />
        </mxCell>
        <mxCell id="WWC2m4pwp560aqgwM4yx-34" style="edgeStyle=orthogonalEdgeStyle;rounded=1;orthogonalLoop=1;jettySize=auto;html=1;strokeColor=#82b366;strokeWidth=2;fontSize=20;fillColor=#d5e8d4;gradientColor=#97d077;" edge="1" parent="1" source="WWC2m4pwp560aqgwM4yx-26" target="WWC2m4pwp560aqgwM4yx-30">
          <mxGeometry relative="1" as="geometry">
            <Array as="points">
              <mxPoint x="990" y="375" />
            </Array>
          </mxGeometry>
        </mxCell>
        <mxCell id="WWC2m4pwp560aqgwM4yx-35" style="edgeStyle=orthogonalEdgeStyle;rounded=1;orthogonalLoop=1;jettySize=auto;html=1;strokeColor=#b85450;strokeWidth=2;fontSize=20;fillColor=#f8cecc;gradientColor=#ea6b66;" edge="1" parent="1" source="WWC2m4pwp560aqgwM4yx-26" target="WWC2m4pwp560aqgwM4yx-27">
          <mxGeometry relative="1" as="geometry">
            <Array as="points">
              <mxPoint x="1150" y="293" />
              <mxPoint x="1150" y="610" />
              <mxPoint x="960" y="610" />
              <mxPoint x="960" y="849" />
            </Array>
          </mxGeometry>
        </mxCell>
        <mxCell id="WWC2m4pwp560aqgwM4yx-26" value="&lt;font style=&quot;font-size: 14px;&quot;&gt;is everything ok?&lt;/font&gt;" style="rhombus;whiteSpace=wrap;html=1;shadow=0;dashed=1;dashPattern=12 12;fillColor=#ffcd28;strokeColor=#d79b00;align=center;gradientColor=#ffa500;" vertex="1" parent="1">
          <mxGeometry x="930" y="235" width="125" height="125" as="geometry" />
        </mxCell>
        <mxCell id="WWC2m4pwp560aqgwM4yx-27" value="STOP" style="ellipse;shape=doubleEllipse;whiteSpace=wrap;html=1;shadow=0;dashed=1;dashPattern=12 12;fillColor=#fad7ac;strokeColor=#b46504;" vertex="1" parent="1">
          <mxGeometry x="730" y="810" width="130" height="78" as="geometry" />
        </mxCell>
        <mxCell id="WWC2m4pwp560aqgwM4yx-33" value="" style="edgeStyle=orthogonalEdgeStyle;rounded=1;orthogonalLoop=1;jettySize=auto;html=1;strokeColor=#f08616;strokeWidth=2;fontSize=20;" edge="1" parent="1" source="WWC2m4pwp560aqgwM4yx-29" target="WWC2m4pwp560aqgwM4yx-26">
          <mxGeometry relative="1" as="geometry" />
        </mxCell>
        <mxCell id="WWC2m4pwp560aqgwM4yx-29" value="&lt;span style=&quot;font-size: 20px;&quot;&gt;compiled all components and SCSS&lt;/span&gt;" style="shape=process;whiteSpace=wrap;html=1;backgroundOutline=1;shadow=0;dashed=1;dashPattern=12 12;fillColor=#b0e3e6;strokeColor=#0e8088;" vertex="1" parent="1">
          <mxGeometry x="642.86" y="235" width="217.14" height="80" as="geometry" />
        </mxCell>
        <mxCell id="WWC2m4pwp560aqgwM4yx-37" style="edgeStyle=orthogonalEdgeStyle;rounded=1;orthogonalLoop=1;jettySize=auto;html=1;entryX=0.5;entryY=0;entryDx=0;entryDy=0;strokeColor=#f08616;strokeWidth=2;fontSize=14;" edge="1" parent="1" source="WWC2m4pwp560aqgwM4yx-30" target="WWC2m4pwp560aqgwM4yx-36">
          <mxGeometry relative="1" as="geometry" />
        </mxCell>
        <mxCell id="WWC2m4pwp560aqgwM4yx-30" value="&lt;span style=&quot;font-size: 20px;&quot;&gt;generate pre define routes&lt;/span&gt;" style="shape=process;whiteSpace=wrap;html=1;backgroundOutline=1;shadow=0;dashed=1;dashPattern=12 12;fillColor=#b0e3e6;strokeColor=#0e8088;" vertex="1" parent="1">
          <mxGeometry x="670" y="340" width="190" height="70" as="geometry" />
        </mxCell>
        <mxCell id="WWC2m4pwp560aqgwM4yx-41" style="edgeStyle=orthogonalEdgeStyle;rounded=1;orthogonalLoop=1;jettySize=auto;html=1;strokeColor=#f08616;strokeWidth=2;fontSize=14;" edge="1" parent="1" source="WWC2m4pwp560aqgwM4yx-31" target="WWC2m4pwp560aqgwM4yx-40">
          <mxGeometry relative="1" as="geometry" />
        </mxCell>
        <mxCell id="WWC2m4pwp560aqgwM4yx-31" value="&lt;span style=&quot;font-size: 20px;&quot;&gt;generate wordpress dynamic routes&lt;/span&gt;" style="shape=process;whiteSpace=wrap;html=1;backgroundOutline=1;shadow=0;dashed=1;dashPattern=12 12;fillColor=#b0e3e6;strokeColor=#0e8088;" vertex="1" parent="1">
          <mxGeometry x="670" y="440" width="190" height="70" as="geometry" />
        </mxCell>
        <mxCell id="WWC2m4pwp560aqgwM4yx-38" style="edgeStyle=orthogonalEdgeStyle;rounded=1;orthogonalLoop=1;jettySize=auto;html=1;entryX=0;entryY=0.5;entryDx=0;entryDy=0;strokeColor=#82b366;strokeWidth=2;fontSize=14;fillColor=#d5e8d4;gradientColor=#97d077;" edge="1" parent="1" source="WWC2m4pwp560aqgwM4yx-36" target="WWC2m4pwp560aqgwM4yx-31">
          <mxGeometry relative="1" as="geometry" />
        </mxCell>
        <mxCell id="WWC2m4pwp560aqgwM4yx-39" style="edgeStyle=orthogonalEdgeStyle;rounded=1;orthogonalLoop=1;jettySize=auto;html=1;entryX=0;entryY=0.641;entryDx=0;entryDy=0;entryPerimeter=0;strokeColor=#b85450;strokeWidth=2;fontSize=14;fillColor=#f8cecc;gradientColor=#ea6b66;" edge="1" parent="1" source="WWC2m4pwp560aqgwM4yx-36" target="WWC2m4pwp560aqgwM4yx-27">
          <mxGeometry relative="1" as="geometry">
            <Array as="points">
              <mxPoint x="512" y="700" />
              <mxPoint x="560" y="700" />
              <mxPoint x="560" y="860" />
            </Array>
          </mxGeometry>
        </mxCell>
        <mxCell id="WWC2m4pwp560aqgwM4yx-36" value="is everything ok?" style="rhombus;whiteSpace=wrap;html=1;shadow=0;dashed=1;dashPattern=12 12;fillColor=#ffcd28;strokeColor=#d79b00;align=center;gradientColor=#ffa500;" vertex="1" parent="1">
          <mxGeometry x="450" y="370" width="125" height="125" as="geometry" />
        </mxCell>
        <mxCell id="WWC2m4pwp560aqgwM4yx-44" style="edgeStyle=orthogonalEdgeStyle;rounded=1;orthogonalLoop=1;jettySize=auto;html=1;entryX=1;entryY=0.75;entryDx=0;entryDy=0;strokeColor=#82b366;strokeWidth=2;fontSize=14;fillColor=#d5e8d4;gradientColor=#97d077;" edge="1" parent="1" source="WWC2m4pwp560aqgwM4yx-40" target="WWC2m4pwp560aqgwM4yx-43">
          <mxGeometry relative="1" as="geometry">
            <Array as="points">
              <mxPoint x="992" y="592" />
            </Array>
          </mxGeometry>
        </mxCell>
        <mxCell id="WWC2m4pwp560aqgwM4yx-45" style="edgeStyle=orthogonalEdgeStyle;rounded=1;orthogonalLoop=1;jettySize=auto;html=1;exitX=1;exitY=0.5;exitDx=0;exitDy=0;strokeColor=#b85450;strokeWidth=2;fontSize=14;fillColor=#f8cecc;gradientColor=#ea6b66;" edge="1" parent="1" source="WWC2m4pwp560aqgwM4yx-40" target="WWC2m4pwp560aqgwM4yx-27">
          <mxGeometry relative="1" as="geometry" />
        </mxCell>
        <mxCell id="WWC2m4pwp560aqgwM4yx-40" value="&lt;font style=&quot;font-size: 14px;&quot;&gt;Is APIs&amp;nbsp; working?&lt;/font&gt;" style="rhombus;whiteSpace=wrap;html=1;shadow=0;dashed=1;dashPattern=12 12;fillColor=#ffcd28;strokeColor=#d79b00;align=center;gradientColor=#ffa500;" vertex="1" parent="1">
          <mxGeometry x="930" y="400" width="125" height="125" as="geometry" />
        </mxCell>
        <mxCell id="WWC2m4pwp560aqgwM4yx-47" style="edgeStyle=orthogonalEdgeStyle;rounded=1;orthogonalLoop=1;jettySize=auto;html=1;entryX=0.5;entryY=0;entryDx=0;entryDy=0;strokeColor=#f08616;strokeWidth=2;fontSize=14;" edge="1" parent="1" source="WWC2m4pwp560aqgwM4yx-43" target="WWC2m4pwp560aqgwM4yx-46">
          <mxGeometry relative="1" as="geometry" />
        </mxCell>
        <mxCell id="WWC2m4pwp560aqgwM4yx-43" value="&lt;span style=&quot;font-size: 20px;&quot;&gt;Upload to S3&lt;/span&gt;" style="shape=process;whiteSpace=wrap;html=1;backgroundOutline=1;shadow=0;dashed=1;dashPattern=12 12;fillColor=#b0e3e6;strokeColor=#0e8088;" vertex="1" parent="1">
          <mxGeometry x="670" y="540" width="190" height="70" as="geometry" />
        </mxCell>
        <mxCell id="WWC2m4pwp560aqgwM4yx-48" style="edgeStyle=orthogonalEdgeStyle;rounded=1;orthogonalLoop=1;jettySize=auto;html=1;strokeColor=#f08616;strokeWidth=2;fontSize=14;" edge="1" parent="1" source="WWC2m4pwp560aqgwM4yx-46" target="WWC2m4pwp560aqgwM4yx-27">
          <mxGeometry relative="1" as="geometry" />
        </mxCell>
        <mxCell id="WWC2m4pwp560aqgwM4yx-46" value="&lt;span style=&quot;font-size: 20px;&quot;&gt;Invalidate cloudfront&lt;/span&gt;" style="shape=process;whiteSpace=wrap;html=1;backgroundOutline=1;shadow=0;dashed=1;dashPattern=12 12;fillColor=#b0e3e6;strokeColor=#0e8088;" vertex="1" parent="1">
          <mxGeometry x="580" y="650" width="190" height="60" as="geometry" />
        </mxCell>
      </root>
    </mxGraphModel>
  </diagram>
  <diagram id="0GjSJ6mE0cjWFefwHqFd" name="Page-5">
    <mxGraphModel dx="1122" dy="695" grid="1" gridSize="10" guides="1" tooltips="1" connect="1" arrows="1" fold="1" page="1" pageScale="1" pageWidth="1600" pageHeight="900" math="0" shadow="0">
      <root>
        <mxCell id="0" />
        <mxCell id="1" parent="0" />
        <mxCell id="zNZF7iq4520HmDtPFVUy-1" value="" style="verticalLabelPosition=bottom;sketch=0;html=1;fillColor=#A153A0;strokeColor=#ffffff;verticalAlign=top;align=center;points=[[0,0.5,0],[0.125,0.25,0],[0.25,0,0],[0.5,0,0],[0.75,0,0],[0.875,0.25,0],[1,0.5,0],[0.875,0.75,0],[0.75,1,0],[0.5,1,0],[0.125,0.75,0]];pointerEvents=1;shape=mxgraph.cisco_safe.compositeIcon;bgIcon=mxgraph.cisco_safe.design.blank_device;resIcon=mxgraph.cisco_safe.design.l3_switch;shadow=0;dashed=1;dashPattern=12 12;fontSize=14;" vertex="1" parent="1">
          <mxGeometry x="550" y="449" width="90" height="81" as="geometry" />
        </mxCell>
        <mxCell id="YMFtavJwY847PwhHc0Hp-1" value="Knowledge Sharing Bridge" style="text;whiteSpace=wrap;html=1;align=center;" vertex="1" parent="1">
          <mxGeometry x="620" y="420" width="110" height="30" as="geometry" />
        </mxCell>
        <mxCell id="YMFtavJwY847PwhHc0Hp-3" value="" style="group" vertex="1" connectable="0" parent="1">
          <mxGeometry x="540" y="670" width="110" height="82" as="geometry" />
        </mxCell>
        <mxCell id="mrJdoFslZBs9FYTo5Die-1" value="" style="aspect=fixed;html=1;points=[];align=center;image;fontSize=12;image=img/lib/azure2/general/Code.svg;shadow=0;dashed=1;dashPattern=12 12;fillColor=#e17312;" vertex="1" parent="YMFtavJwY847PwhHc0Hp-3">
          <mxGeometry x="23" width="64" height="52" as="geometry" />
        </mxCell>
        <mxCell id="YMFtavJwY847PwhHc0Hp-2" value="&lt;span style=&quot;color: rgb(0, 0, 0); font-family: Helvetica; font-size: 12px; font-style: normal; font-variant-ligatures: normal; font-variant-caps: normal; font-weight: 400; letter-spacing: normal; orphans: 2; text-indent: 0px; text-transform: none; widows: 2; word-spacing: 0px; -webkit-text-stroke-width: 0px; background-color: rgb(251, 251, 251); text-decoration-thickness: initial; text-decoration-style: initial; text-decoration-color: initial; float: none; display: inline !important;&quot;&gt;Gamezy&lt;/span&gt;" style="text;whiteSpace=wrap;html=1;align=center;" vertex="1" parent="YMFtavJwY847PwhHc0Hp-3">
          <mxGeometry y="52" width="110" height="30" as="geometry" />
        </mxCell>
        <mxCell id="YMFtavJwY847PwhHc0Hp-4" value="" style="group" vertex="1" connectable="0" parent="1">
          <mxGeometry x="540" y="240" width="110" height="82" as="geometry" />
        </mxCell>
        <mxCell id="YMFtavJwY847PwhHc0Hp-5" value="" style="aspect=fixed;html=1;points=[];align=center;image;fontSize=12;image=img/lib/azure2/general/Code.svg;shadow=0;dashed=1;dashPattern=12 12;fillColor=#e17312;" vertex="1" parent="YMFtavJwY847PwhHc0Hp-4">
          <mxGeometry x="23" width="64" height="52" as="geometry" />
        </mxCell>
        <mxCell id="YMFtavJwY847PwhHc0Hp-6" value="&lt;span style=&quot;color: rgb(0, 0, 0); font-family: Helvetica; font-size: 12px; font-style: normal; font-variant-ligatures: normal; font-variant-caps: normal; font-weight: 400; letter-spacing: normal; orphans: 2; text-indent: 0px; text-transform: none; widows: 2; word-spacing: 0px; -webkit-text-stroke-width: 0px; background-color: rgb(251, 251, 251); text-decoration-thickness: initial; text-decoration-style: initial; text-decoration-color: initial; float: none; display: inline !important;&quot;&gt;Pocket52&lt;/span&gt;" style="text;whiteSpace=wrap;html=1;align=center;" vertex="1" parent="YMFtavJwY847PwhHc0Hp-4">
          <mxGeometry y="52" width="110" height="30" as="geometry" />
        </mxCell>
        <mxCell id="YMFtavJwY847PwhHc0Hp-13" value="" style="group" vertex="1" connectable="0" parent="1">
          <mxGeometry x="780" y="460" width="110" height="82" as="geometry" />
        </mxCell>
        <mxCell id="YMFtavJwY847PwhHc0Hp-14" value="" style="aspect=fixed;html=1;points=[];align=center;image;fontSize=12;image=img/lib/azure2/general/Code.svg;shadow=0;dashed=1;dashPattern=12 12;fillColor=#e17312;" vertex="1" parent="YMFtavJwY847PwhHc0Hp-13">
          <mxGeometry x="23" width="64" height="52" as="geometry" />
        </mxCell>
        <mxCell id="YMFtavJwY847PwhHc0Hp-15" value="&lt;span style=&quot;color: rgb(0, 0, 0); font-family: Helvetica; font-size: 12px; font-style: normal; font-variant-ligatures: normal; font-variant-caps: normal; font-weight: 400; letter-spacing: normal; orphans: 2; text-indent: 0px; text-transform: none; widows: 2; word-spacing: 0px; -webkit-text-stroke-width: 0px; background-color: rgb(251, 251, 251); text-decoration-thickness: initial; text-decoration-style: initial; text-decoration-color: initial; float: none; display: inline !important;&quot;&gt;Gameskraft&lt;/span&gt;" style="text;whiteSpace=wrap;html=1;align=center;" vertex="1" parent="YMFtavJwY847PwhHc0Hp-13">
          <mxGeometry y="52" width="110" height="30" as="geometry" />
        </mxCell>
        <mxCell id="YMFtavJwY847PwhHc0Hp-8" value="" style="aspect=fixed;html=1;points=[];align=center;image;fontSize=12;image=img/lib/azure2/general/Code.svg;shadow=0;dashed=1;dashPattern=12 12;fillColor=#e17312;" vertex="1" parent="1">
          <mxGeometry x="323" y="460" width="64" height="52" as="geometry" />
        </mxCell>
        <mxCell id="YMFtavJwY847PwhHc0Hp-9" value="&lt;span style=&quot;color: rgb(0, 0, 0); font-family: Helvetica; font-size: 12px; font-style: normal; font-variant-ligatures: normal; font-variant-caps: normal; font-weight: 400; letter-spacing: normal; orphans: 2; text-indent: 0px; text-transform: none; widows: 2; word-spacing: 0px; -webkit-text-stroke-width: 0px; background-color: rgb(251, 251, 251); text-decoration-thickness: initial; text-decoration-style: initial; text-decoration-color: initial; float: none; display: inline !important;&quot;&gt;Playship&lt;/span&gt;" style="text;whiteSpace=wrap;html=1;align=center;" vertex="1" parent="1">
          <mxGeometry x="300" y="512" width="110" height="30" as="geometry" />
        </mxCell>
        <mxCell id="YMFtavJwY847PwhHc0Hp-20" value="" style="html=1;shadow=0;dashed=0;align=center;verticalAlign=middle;shape=mxgraph.arrows2.twoWayArrow;dy=0.65;dx=22;dashPattern=12 12;fontSize=14;fillColor=#d5e8d4;gradientColor=#97d077;strokeColor=#82b366;" vertex="1" parent="1">
          <mxGeometry x="390" y="479" width="160" height="20" as="geometry" />
        </mxCell>
        <mxCell id="YMFtavJwY847PwhHc0Hp-25" value="" style="html=1;shadow=0;dashed=0;align=center;verticalAlign=middle;shape=mxgraph.arrows2.twoWayArrow;dy=0.65;dx=22;dashPattern=12 12;fontSize=14;fillColor=#d5e8d4;gradientColor=#97d077;strokeColor=#82b366;" vertex="1" parent="1">
          <mxGeometry x="640" y="479.5" width="160" height="20" as="geometry" />
        </mxCell>
        <mxCell id="YMFtavJwY847PwhHc0Hp-26" value="" style="html=1;shadow=0;dashed=0;align=center;verticalAlign=middle;shape=mxgraph.arrows2.twoWayArrow;dy=0.65;dx=22;dashPattern=12 12;fontSize=14;fillColor=#d5e8d4;rotation=90;gradientColor=#97d077;strokeColor=#82b366;" vertex="1" parent="1">
          <mxGeometry x="527.5" y="372.5" width="135" height="20" as="geometry" />
        </mxCell>
        <mxCell id="YMFtavJwY847PwhHc0Hp-28" value="" style="html=1;shadow=0;dashed=0;align=center;verticalAlign=middle;shape=mxgraph.arrows2.twoWayArrow;dy=0.65;dx=22;dashPattern=12 12;fontSize=14;fillColor=#d5e8d4;rotation=90;gradientColor=#97d077;strokeColor=#82b366;" vertex="1" parent="1">
          <mxGeometry x="527.5" y="590" width="135" height="20" as="geometry" />
        </mxCell>
      </root>
    </mxGraphModel>
  </diagram>
</mxfile>
